<?xml version="1.0" encoding="UTF-8" standalone="no"?>
<!DOCTYPE svg PUBLIC "-//W3C//DTD SVG 1.1//EN" "http://www.w3.org/Graphics/SVG/1.1/DTD/svg11.dtd">
<svg width="100%" height="100%" viewBox="0 0 1000 1000" version="1.1" xmlns="http://www.w3.org/2000/svg" xmlns:xlink="http://www.w3.org/1999/xlink" xml:space="preserve" xmlns:serif="http://www.serif.com/" style="fill-rule:evenodd;clip-rule:evenodd;stroke-linejoin:round;stroke-miterlimit:2;">
    <path d="M0.002,99.354L0,100L0,900C-0,955.192 44.808,1000 100,1000L900,1000C955.192,1000 1000,955.192 1000,900L1000,600C1000,544.808 955.192,500 900,500C844.808,500 800,544.808 800,600L800,800L200,800L200,200L400,200C455.192,200 500,155.192 500,100C500,44.808 455.192,0 400,0L100,0C45.024,0 0.35,44.46 0.002,99.354ZM750,100C832.787,100 900,167.213 900,250C900,332.787 832.787,400 750,400C667.213,400 600,332.787 600,250C600,167.213 667.213,100 750,100Z" style="fill:white;"/>
</svg>
