<?xml version="1.0" encoding="UTF-8"?>
<!DOCTYPE svg PUBLIC "-//W3C//DTD SVG 1.1//EN" "http://www.w3.org/Graphics/SVG/1.1/DTD/svg11.dtd">
<svg version="1.1" xmlns="http://www.w3.org/2000/svg" xmlns:xlink="http://www.w3.org/1999/xlink" width="240" height="225"  xml:space="preserve" id="canvas1">
	<!-- Generated by PaintCode - http://www.paintcodeapp.com -->
	<path id="canvas1-bezier" stroke="none" fill="rgb(128, 128, 128)" d="M 32,16 C 32,16 32,57.39 32,81 L 161,81 C 169.84,81 177,88.16 177,97 177,105.84 169.84,113 161,113 L 16,113 15.79,113 15.59,112.99 15.38,112.99 15.18,112.98 14.97,112.97 14.77,112.95 14.57,112.94 14.36,112.92 14.16,112.9 13.96,112.87 13.76,112.84 13.56,112.82 13.37,112.78 13.17,112.75 12.97,112.71 12.78,112.67 12.58,112.63 12.39,112.59 12.19,112.54 12,112.5 11.81,112.45 11.62,112.39 11.43,112.34 11.24,112.28 11.05,112.22 10.87,112.16 10.68,112.1 10.5,112.03 10.32,111.96 10.13,111.89 9.95,111.82 9.77,111.74 9.59,111.67 9.42,111.59 9.24,111.51 9.06,111.42 8.89,111.34 8.72,111.25 8.54,111.16 8.37,111.07 8.2,110.98 8.04,110.88 7.87,110.78 7.7,110.68 7.54,110.58 7.38,110.48 7.21,110.37 7.05,110.27 6.9,110.16 6.74,110.05 6.58,109.94 6.43,109.82 6.27,109.71 6.12,109.59 5.97,109.47 5.82,109.35 5.68,109.22 5.53,109.1 5.38,108.97 5.24,108.84 5.1,108.71 4.96,108.58 4.82,108.45 4.69,108.31 4.55,108.18 4.42,108.04 4.29,107.9 4.16,107.76 4.03,107.62 3.9,107.47 3.78,107.32 3.65,107.18 3.53,107.03 3.41,106.88 3.29,106.73 3.18,106.57 3.06,106.42 2.95,106.26 2.84,106.1 2.73,105.95 2.63,105.79 2.52,105.62 2.42,105.46 2.32,105.3 2.22,105.13 2.12,104.96 2.02,104.8 1.93,104.63 1.84,104.46 1.75,104.28 1.66,104.11 1.58,103.94 1.49,103.76 1.41,103.58 1.33,103.41 1.26,103.23 1.18,103.05 1.11,102.87 1.04,102.68 0.97,102.5 0.9,102.32 0.84,102.13 0.78,101.95 0.72,101.76 0.66,101.57 0.61,101.38 0.55,101.19 0.5,101 0.46,100.81 0.41,100.61 0.37,100.42 0.33,100.22 0.29,100.03 0.25,99.83 0.22,99.63 0.18,99.44 0.16,99.24 0.13,99.04 0.1,98.84 0.08,98.64 0.06,98.43 0.05,98.23 0.03,98.03 0.02,97.82 0.01,97.62 0.01,97.41 0,97.21 0,97 0,16 C 0,7.16 7.16,-0 16,-0 24.84,-0 32,7.16 32,16 Z M 32,16" transform="translate(23, 103.1) rotate(-45)"  />
</svg>
