<?xml version="1.0" encoding="UTF-8" standalone="no"?>
<!DOCTYPE svg PUBLIC "-//W3C//DTD SVG 1.1//EN" "http://www.w3.org/Graphics/SVG/1.1/DTD/svg11.dtd">
<svg width="100%" height="100%" viewBox="0 0 1000 1000" version="1.1" xmlns="http://www.w3.org/2000/svg" xmlns:xlink="http://www.w3.org/1999/xlink" xml:space="preserve" xmlns:serif="http://www.serif.com/" style="fill-rule:evenodd;clip-rule:evenodd;stroke-linejoin:round;stroke-miterlimit:2;">
    <path d="M500,800C555.192,800 600,844.808 600,900C600,955.192 555.192,1000 500,1000C444.808,1000 400,955.192 400,900C400,844.808 444.808,800 500,800ZM500.97,0.002C666.112,0.538 800,134.757 800,300C800,430.522 716.466,541.688 600,582.902L600,650C600,705.192 555.192,750 500,750C444.808,750 400,705.192 400,650L400,500.646L400.002,500C400.35,445.106 445.024,400.646 500,400.646L500,400C555.192,400 600,355.192 600,300C600,244.808 555.192,200 500,200C445.024,200 400.35,244.46 400.002,299.354L399.998,300.646C399.65,355.54 354.976,400 300,400C244.808,400 200,355.192 200,300C200,134.425 334.425,0 500,0L500.97,0.002Z" style="fill:white;"/>
</svg>
