<?xml version="1.0" encoding="UTF-8" standalone="no"?>
<!DOCTYPE svg PUBLIC "-//W3C//DTD SVG 1.1//EN" "http://www.w3.org/Graphics/SVG/1.1/DTD/svg11.dtd">
<svg width="100%" height="100%" viewBox="0 0 1000 1000" version="1.1" xmlns="http://www.w3.org/2000/svg" xmlns:xlink="http://www.w3.org/1999/xlink" xml:space="preserve" xmlns:serif="http://www.serif.com/" style="fill-rule:evenodd;clip-rule:evenodd;stroke-linejoin:round;stroke-miterlimit:2;">
    <g transform="matrix(1,0,0,1,0.00980382,24.9853)">
        <path d="M600,725.015C600,669.823 555.192,625.015 500,625.015C444.808,625.015 400,669.823 400,725.015L400,875.015C400,902.61 377.596,925.015 350,925.015L250,925.015C222.404,925.015 200,902.61 200,875.015L200,575.015L50,575.015L50,575.005C37.201,575.005 24.401,570.127 14.645,560.37C-4.868,540.857 -4.868,509.173 14.645,489.659L464.645,39.659L464.874,39.432C484.405,20.147 515.918,20.222 535.355,39.659L985.355,489.659C1004.87,509.173 1004.87,540.857 985.355,560.37C975.597,570.129 962.794,575.007 949.99,575.005L949.99,575.015L800,575.015L800,875.015C800,902.61 777.596,925.015 750,925.015L650,925.015C622.404,925.015 600,902.61 600,875.015L600,725.015Z" style="fill:white;"/>
    </g>
</svg>
