<?xml version="1.0" encoding="UTF-8" standalone="no"?>
<!DOCTYPE svg PUBLIC "-//W3C//DTD SVG 1.1//EN" "http://www.w3.org/Graphics/SVG/1.1/DTD/svg11.dtd">
<svg width="100%" height="100%" viewBox="0 0 1000 1000" version="1.1" xmlns="http://www.w3.org/2000/svg" xmlns:xlink="http://www.w3.org/1999/xlink" xml:space="preserve" xmlns:serif="http://www.serif.com/" style="fill-rule:evenodd;clip-rule:evenodd;stroke-linejoin:round;stroke-miterlimit:2;">
    <g>
        <path d="M897.448,102.577C960.798,165.933 1000,253.428 1000,350.007C1000,543.177 843.17,700.007 650,700.007C603.131,700.007 558.402,690.775 517.54,674.035C495.741,662.404 471.428,670 460.163,681.265L170.711,970.718C131.684,1009.74 68.316,1009.74 29.289,970.718L29.282,970.711C-9.744,931.684 -9.744,868.316 29.282,829.289L318.735,539.837C330,528.572 337.596,504.259 325.965,482.46C309.225,441.598 299.993,396.869 299.993,350C299.993,156.83 456.823,0 649.993,0C746.572,0 834.067,39.202 897.423,102.553L897.448,102.577ZM650,200L650,200L650,200L650,200C567.213,200 499.993,267.213 499.993,350C499.993,350.099 499.995,350.196 500,350.288C500.161,432.849 567.151,499.839 649.712,500C649.804,500.005 649.901,500.007 650,500.007C732.787,500.007 800,432.794 800,350.007L800,350C800,267.213 732.787,200 650,200Z" style="fill:white;"/>
    </g>
</svg>
