<?xml version="1.0" encoding="UTF-8"?>
<svg width="934px" height="956px" viewBox="0 0 934 956" version="1.1" xmlns="http://www.w3.org/2000/svg" xmlns:xlink="http://www.w3.org/1999/xlink">
    <!-- Generator: Sketch 50.2 (55047) - http://www.bohemiancoding.com/sketch -->
    <title>settings</title>
    <desc>Created with Sketch.</desc>
    <defs></defs>
    <g id="Page-1" stroke="none" stroke-width="1" fill="none" fill-rule="evenodd">
        <g id="Mobile" transform="translate(-3963.500000, 312.500000) scale(-1, 1) translate(3963.500000, -312.500000) translate(-14739.000000, -5423.000000)" fill="#FFFFFF" fill-rule="nonzero">
            <g id="settings" transform="translate(6345.000000, 5901.000000) scale(-1, 1) translate(-6345.000000, -5901.000000) translate(5878.000000, 5423.000000)">
                <g id="Shape1" transform="translate(262.000000, 273.000000)">
                    <path d="M205,0.5 C92.2,0.5 0.5,92.3 0.5,205 C0.5,317.8 92.3,409.5 205,409.5 C317.8,409.5 409.5,317.7 409.5,205 C409.5,92.2 317.7,0.5 205,0.5 M205,345.2 C127.7,345.2 64.8,282.3 64.8,205 C64.8,127.7 127.7,64.8 205,64.8 C282.3,64.8 345.2,127.7 345.2,205 C345.2,282.3 282.3,345.2 205,345.2" id="shapePath1"></path>
                </g>
                <g id="Shape2">
                    <path d="M930.3,387.7 C937.6,360.6 933.8,332.2 919.8,307.9 L845.2,178.6 C826.5,146.2 791.6,126 754.1,126 C735.7,126 717.6,130.9 701.6,140.1 L660.5,163.8 C657.5,162 654.4,160.2 651.2,158.5 L651.2,105.9 C651.2,47.9 604,0.8 546.1,0.8 L396.8,0.8 C338.8,0.8 291.7,47.9 291.7,105.9 L291.7,156 C289.3,157.3 287,158.6 284.7,159.9 L236.9,132.3 C220.9,123.1 202.8,118.2 184.4,118.2 C146.9,118.2 112,138.4 93.3,170.8 L18.6,300.1 C-10.4,350.3 6.9,414.7 57.1,443.7 L99.6,468.3 C99.5,471.4 99.4,474.4 99.4,477.5 L52.7,504.5 C2.5,533.5 -14.8,597.9 14.2,648.1 L88.8,777.4 C107.5,809.8 142.4,830 179.9,830 C198.3,830 216.4,825.1 232.4,815.9 L272.1,793 C275.6,795.2 279.1,797.4 282.7,799.5 L282.7,850.2 C282.7,908.2 329.8,955.3 387.8,955.3 L537.1,955.3 C595.1,955.3 642.2,908.2 642.2,850.2 L642.2,807 C646.7,804.6 651.1,802.2 655.4,799.7 L697,823.7 C713,832.9 731.1,837.8 749.5,837.8 C786.9,837.8 821.9,817.6 840.6,785.2 L915.3,655.9 C929.3,631.6 933,603.3 925.8,576.1 C918.5,549 901.1,526.3 876.8,512.3 L838.8,490.4 C838.9,487.1 839,483.7 839,480.3 C839,478.9 839,477.5 838.9,476 L881.2,451.6 C905.6,437.5 923,414.8 930.3,387.7 M868.2,371.1 C865.4,381.6 858.6,390.4 849.2,395.9 L789.7,430.2 C779.1,436.3 772.9,447.9 773.7,460.2 L774,465.1 C774.4,470.2 774.7,475.2 774.7,480.4 C774.7,489 774.1,497.4 773.4,505.8 C772.4,518.2 778.6,530.1 789.4,536.3 L844.7,568.2 C854.1,573.6 860.9,582.4 863.7,593 C866.5,603.5 865.1,614.5 859.7,623.9 L784.9,753 C774.1,771.7 748.2,778.8 729.2,767.9 L671,734.3 C660.5,728.1 647.3,728.6 637.2,735.3 C624.9,743.4 611.7,750.7 596.6,757.6 C585.2,762.9 577.9,774.3 577.9,786.8 L577.9,850 C577.9,872.5 559.6,890.8 537.1,890.8 L387.8,890.8 C365.3,890.8 347,872.5 347,850 L347,780.3 C347,768.3 340.3,757.2 329.6,751.7 C316.7,745.1 304.1,737.4 292.1,728.8 C286.5,724.8 280,722.8 273.4,722.8 C267.9,722.8 262.3,724.2 257.3,727.1 L200.2,760.1 C181.3,771 155.3,763.9 144.5,745.1 L69.9,615.8 C58.7,596.3 65.4,571.3 84.8,560.1 L146.5,524.4 C149.7,522.8 152.6,520.8 155.1,518.3 C161.5,511.9 164.9,503.1 164.5,494 L164.1,487.8 C163.9,485.2 163.7,482.7 163.7,480.1 C163.7,471 164.3,462 165.1,453.1 C166.2,440.6 160,428.7 149.1,422.4 L89.3,388 C69.8,376.7 63.1,351.8 74.4,332.3 L149,203 C159.8,184.3 185.8,177.2 204.7,188.1 L266.6,223.8 C267,224.1 267.4,224.4 267.8,224.6 C278.4,231.3 292.1,231.3 302.7,224.4 C313.2,217.5 324.7,211.2 337.8,204.8 C349,199.5 356.1,188.2 356.1,175.8 L356.1,105.9 C356.1,83.4 374.4,65.1 396.9,65.1 L546.2,65.1 C568.7,65.1 587,83.4 587,105.9 L587,177.9 C587,190.1 593.9,201.2 604.8,206.7 C618.9,213.7 631,220.7 641.6,228 C651.8,235 665.1,235.5 675.8,229.3 L733.8,195.8 C752.7,184.9 778.7,192 789.5,210.8 L864.2,340.1 C869.5,349.5 871,360.5 868.2,371.1" id="shapePath2"></path>
                </g>
            </g>
        </g>
    </g>
</svg>