<?xml version="1.0" encoding="UTF-8" standalone="no"?>
<!DOCTYPE svg PUBLIC "-//W3C//DTD SVG 1.1//EN" "http://www.w3.org/Graphics/SVG/1.1/DTD/svg11.dtd">
<svg width="100%" height="100%" viewBox="0 0 1000 1000" version="1.1" xmlns="http://www.w3.org/2000/svg" xmlns:xlink="http://www.w3.org/1999/xlink" xml:space="preserve" xmlns:serif="http://www.serif.com/" style="fill-rule:evenodd;clip-rule:evenodd;stroke-linejoin:round;stroke-miterlimit:2;">
    <path d="M10.783,464.906C-2.268,484.139 -3.568,509.026 7.408,529.514C218.519,923.588 781.481,923.588 992.592,529.514C1003.57,509.026 1002.27,484.139 989.217,464.906C856.862,269.856 677.635,175 500,175C322.365,175 143.138,269.856 10.783,464.906ZM137.002,503.379C239.084,369.216 368.847,300 500,300C631.153,300 760.916,369.216 862.998,503.379C693.189,765.448 306.811,765.448 137.002,503.379L137.002,503.379ZM624.274,486.459C624.754,490.909 625,495.426 625,500C625,568.989 568.989,625 500,625C431.011,625 375,568.989 375,500C375,431.011 431.011,375 500,375C503.581,375 507.126,375.151 510.626,375.447C502.707,387.983 498.122,402.835 498.122,418.75C498.122,463.593 534.529,500 579.372,500C595.968,500 611.409,495.013 624.274,486.459Z" style="fill:white;"/>
</svg>
