<?xml version="1.0" encoding="UTF-8"?>
<svg width="924px" height="866px" viewBox="0 0 924 866" version="1.1" xmlns="http://www.w3.org/2000/svg" xmlns:xlink="http://www.w3.org/1999/xlink">
    <!-- Generator: Sketch 50.2 (55047) - http://www.bohemiancoding.com/sketch -->
    <title>align</title>
    <desc>Created with Sketch.</desc>
    <defs></defs>
    <g id="Page-1" stroke="none" stroke-width="1" fill="none" fill-rule="evenodd">
        <g id="Mobile" transform="translate(2963.500000, -1078.500000) scale(-1, 1) translate(-2963.500000, 1078.500000) translate(-7812.000000, -6814.000000)" fill="#FFFFFF" fill-rule="nonzero">
            <g id="align" transform="translate(13277.000000, 7247.000000) scale(-1, 1) translate(-13277.000000, -7247.000000) translate(12815.000000, 6814.000000)">
                <g id="Shape1">
                    <path d="M32.5,0.8 C14.7,0.8 0.3,15.2 0.3,33 L0.3,833.1 C0.3,850.9 14.7,865.3 32.5,865.3 C50.3,865.3 64.7,850.9 64.7,833.1 L64.7,32.9 C64.7,15.2 50.3,0.8 32.5,0.8 Z" id="shapePath1"></path>
                </g>
                <g id="Shape2" transform="translate(122.000000, 38.000000)">
                    <path d="M32.3,65.3 L750.4,65.3 C768.2,65.3 782.6,50.9 782.6,33.1 C782.6,15.3 768.2,0.9 750.4,0.9 L32.3,0.9 C14.5,0.9 0.1,15.3 0.1,33.1 C0.1,50.9 14.5,65.3 32.3,65.3 Z" id="shapePath2"></path>
                </g>
                <g id="Shape3" transform="translate(122.000000, 207.000000)">
                    <path d="M32.3,64.6 L437.4,64.6 C455.2,64.6 469.6,50.2 469.6,32.4 C469.6,14.6 455.2,0.2 437.4,0.2 L32.3,0.2 C14.5,0.2 0.1,14.6 0.1,32.4 C0.1,50.2 14.5,64.6 32.3,64.6 Z" id="shapePath3"></path>
                </g>
                <g id="Shape4" transform="translate(122.000000, 375.000000)">
                    <path d="M769.5,0.6 L32.3,0.6 C14.5,0.6 0.1,15 0.1,32.8 C0.1,50.6 14.5,65 32.3,65 L769.5,65 C787.3,65 801.7,50.6 801.7,32.8 C801.7,15 787.3,0.6 769.5,0.6 Z" id="shapePath4"></path>
                </g>
                <g id="Shape5" transform="translate(122.000000, 544.000000)">
                    <path d="M624,0 L32.3,0 C14.5,0 0.1,14.4 0.1,32.2 C0.1,50 14.5,64.4 32.3,64.4 L624,64.4 C641.8,64.4 656.2,50 656.2,32.2 C656.2,14.4 641.8,0 624,0 Z" id="shapePath5"></path>
                </g>
                <g id="Shape6" transform="translate(122.000000, 712.000000)">
                    <path d="M267.1,0.3 L32.3,0.3 C14.5,0.3 0.1,14.7 0.1,32.5 C0.1,50.3 14.5,64.7 32.3,64.7 L267.1,64.7 C284.9,64.7 299.3,50.3 299.3,32.5 C299.2,14.7 284.8,0.3 267.1,0.3 Z" id="shapePath6"></path>
                </g>
            </g>
        </g>
    </g>
</svg>