<?xml version="1.0" encoding="UTF-8"?>
<svg width="944px" height="942px" viewBox="0 0 944 942" version="1.1" xmlns="http://www.w3.org/2000/svg" xmlns:xlink="http://www.w3.org/1999/xlink">
    <!-- Generator: Sketch 50.2 (55047) - http://www.bohemiancoding.com/sketch -->
    <title>code</title>
    <desc>Created with Sketch.</desc>
    <defs></defs>
    <g id="Page-1" stroke="none" stroke-width="1" fill="none" fill-rule="evenodd">
        <g id="Mobile" transform="translate(9851.500000, 350.500000) scale(-1, 1) translate(-9851.500000, -350.500000) translate(-924.000000, -5385.000000)" fill="#FFFFFF" fill-rule="nonzero">
            <g id="code" transform="translate(20155.000000, 5856.000000) scale(-1, 1) translate(-20155.000000, -5856.000000) translate(19683.000000, 5385.000000)">
                <g id="Shape1" transform="translate(119.000000, 243.000000)">
                    <path d="M202.2,10.4 C189.8,-2.4 169.5,-2.7 156.7,9.6 L10,151.5 C-2.7,163.8 -3.1,184 9,196.8 L155.7,351.4 C162,358.1 170.5,361.4 179,361.4 C186.9,361.4 194.9,358.5 201.1,352.6 C214,340.4 214.5,320 202.3,307.1 L77.6,175.6 L201.4,55.9 C214.2,43.5 214.5,23.1 202.2,10.4 Z" id="shapePath1"></path>
                </g>
                <g id="Shape2" transform="translate(624.000000, 243.000000)">
                    <path d="M55.7,10.6 C43.5,-2.3 23.1,-2.9 10.2,9.4 C-2.7,21.6 -3.2,42 9,54.9 L133.8,186.4 L10,306.1 C-2.8,318.5 -3.1,338.8 9.2,351.6 C15.5,358.1 23.9,361.4 32.3,361.4 C40.4,361.4 48.4,358.4 54.7,352.4 L201.4,210.5 C214.1,198.2 214.5,178 202.4,165.2 L55.7,10.6 Z" id="shapePath2"></path>
                </g>
                <g id="Shape3" transform="translate(400.000000, 223.000000)">
                    <path d="M129.8,1.3 C112.7,-3.3 95,7 90.5,24.2 L1.6,361.4 C-2.9,378.6 7.3,396.2 24.5,400.7 C27.2,401.4 30,401.8 32.7,401.8 C46.9,401.8 60,392.3 63.8,377.8 L152.7,40.6 C157.3,23.4 147,5.8 129.8,1.3 Z" id="shapePath3"></path>
                </g>
                <g id="Shape4">
                    <path d="M802.2,0.4 L141.8,0.4 C63.7,0.4 0.2,63.9 0.2,142 L0.2,725.2 C0.2,803.3 63.7,866.8 141.8,866.8 L294.1,866.8 C279.1,872.1 268.3,886.2 268.3,903.1 C268.3,924.4 285.6,941.7 306.9,941.7 L637,941.7 C658.3,941.7 675.6,924.4 675.6,903.1 C675.6,886.3 664.8,872.2 649.8,866.8 L802.1,866.8 C880.2,866.8 943.7,803.3 943.7,725.2 L943.7,142 C943.8,63.9 880.3,0.4 802.2,0.4 M879.5,725.2 C879.5,767.8 844.8,802.5 802.2,802.5 L141.8,802.5 C99.2,802.5 64.5,767.8 64.5,725.2 L64.5,142 C64.5,99.4 99.2,64.7 141.8,64.7 L802.2,64.7 C844.8,64.7 879.5,99.4 879.5,142 L879.5,725.2" id="shapePath4"></path>
                </g>
            </g>
        </g>
    </g>
</svg>