<?xml version="1.0" encoding="UTF-8"?>
<svg width="958px" height="958px" viewBox="0 0 958 958" version="1.1" xmlns="http://www.w3.org/2000/svg" xmlns:xlink="http://www.w3.org/1999/xlink">
    <!-- Generator: Sketch 50.2 (55047) - http://www.bohemiancoding.com/sketch -->
    <title>color</title>
    <desc>Created with Sketch.</desc>
    <defs></defs>
    <g id="Page-1" stroke="none" stroke-width="1" fill="none" fill-rule="evenodd">
        <g id="Mobile" transform="translate(9653.500000, -1659.500000) scale(-1, 1) translate(-9653.500000, 1659.500000) translate(-1122.000000, -7395.000000)" fill="#FFFFFF" fill-rule="nonzero">
            <g id="color" transform="translate(19950.000000, 7874.000000) scale(-1, 1) translate(-19950.000000, -7874.000000) translate(19471.000000, 7395.000000)">
                <g id="Shape1">
                    <path d="M479,0.3 C215.1,0.3 0.3,215 0.3,479 C0.3,743 215,957.7 479,957.7 C594.3,957.7 705.6,916.1 792.6,840.7 C842.5,797.4 745.9,650.2 744.9,648.7 C720.4,612.1 714.7,563.6 730.9,528.1 C738.2,512 753.5,491.9 784.6,487.9 C785.6,487.8 786.7,487.7 787.6,487.7 C805.1,487.7 828.5,516.1 840.5,651.7 C843.4,684.2 845.9,712.3 877.3,712.3 C889.5,712.3 901.7,704.2 907.2,693.3 C940.7,626.5 957.7,554.4 957.7,479.1 C957.7,215.1 742.9,0.3 479,0.3 M889.2,538.3 C873.9,474.9 842.5,415.5 776.4,424 C729.2,430.1 692.2,457.6 672.3,501.5 C646.9,557.4 654.5,629.2 691.5,684.5 C722.9,731.3 739.9,779.4 742.5,798.8 C668.5,859.9 575.3,893.4 479,893.4 C250.5,893.4 64.7,707.5 64.7,479.1 C64.7,250.7 250.5,64.7 479,64.7 C707.4,64.7 893.3,250.6 893.3,479 C893.3,499.1 891.9,518.8 889.2,538.3" id="shapePath1"></path>
                </g>
                <g id="Shape2" transform="translate(510.000000, 130.000000)">
                    <path d="M71.9,0.4 C32.5,0.4 0.4,32.5 0.4,71.9 C0.4,111.3 32.5,143.4 71.9,143.4 C111.3,143.4 143.4,111.3 143.4,71.9 C143.4,32.5 111.3,0.4 71.9,0.4 Z" id="shapePath2"></path>
                </g>
                <g id="Shape3" transform="translate(294.000000, 155.000000)">
                    <path d="M143.4,71.6 C143.4,32.2 111.3,0.1 71.9,0.1 C32.5,0.1 0.4,32.2 0.4,71.6 C0.4,111 32.5,143.1 71.9,143.1 C111.3,143 143.4,111 143.4,71.6 Z" id="shapePath3"></path>
                </g>
                <g id="Shape4" transform="translate(127.000000, 312.000000)">
                    <path d="M143.8,72.4 C143.8,33 111.7,0.9 72.3,0.9 C32.9,0.9 0.8,33 0.8,72.4 C0.8,111.8 32.9,143.9 72.3,143.9 C111.7,143.9 143.8,111.8 143.8,72.4 Z" id="shapePath4"></path>
                </g>
                <g id="Shape5" transform="translate(161.000000, 551.000000)">
                    <path d="M72.2,0.1 C32.8,0.1 0.7,32.2 0.7,71.6 C0.7,111 32.8,143.1 72.2,143.1 C111.6,143.1 143.7,111 143.7,71.6 C143.7,32.2 111.7,0.1 72.2,0.1 Z" id="shapePath5"></path>
                </g>
                <g id="Shape6" transform="translate(337.000000, 694.000000)">
                    <path d="M72.1,0.1 C32.7,0.1 0.6,32.2 0.6,71.6 C0.6,111 32.7,143.1 72.1,143.1 C111.5,143.1 143.6,111 143.6,71.6 C143.6,32.2 111.5,0.1 72.1,0.1 Z" id="shapePath6"></path>
                </g>
            </g>
        </g>
    </g>
</svg>