<?xml version="1.0" encoding="UTF-8"?>
<svg width="944px" height="942px" viewBox="0 0 944 942" version="1.1" xmlns="http://www.w3.org/2000/svg" xmlns:xlink="http://www.w3.org/1999/xlink">
    <!-- Generator: Sketch 50.2 (55047) - http://www.bohemiancoding.com/sketch -->
    <title>console</title>
    <desc>Created with Sketch.</desc>
    <defs></defs>
    <g id="Page-1" stroke="none" stroke-width="1" fill="none" fill-rule="evenodd">
        <g id="Mobile" transform="translate(5833.500000, 2746.500000) scale(-1, 1) translate(-5833.500000, -2746.500000) translate(-4942.000000, -2989.000000)" fill="#FFFFFF">
            <g id="console" transform="translate(16137.000000, 3460.000000) scale(-1, 1) translate(-16137.000000, -3460.000000) translate(15665.000000, 2989.000000)">
                <g id="Shape1" fill-rule="nonzero">
                    <path d="M802.2,0.4 L141.8,0.4 C63.7,0.4 0.2,63.9 0.2,142 L0.2,725.2 C0.2,803.3 63.7,866.8 141.8,866.8 L294.1,866.8 C279.1,872.1 268.3,886.2 268.3,903.1 C268.3,924.4 285.6,941.7 306.9,941.7 L637,941.7 C658.3,941.7 675.6,924.4 675.6,903.1 C675.6,886.3 664.8,872.2 649.8,866.8 L802.1,866.8 C880.2,866.8 943.7,803.3 943.7,725.2 L943.7,142 C943.8,63.9 880.3,0.4 802.2,0.4 M879.5,725.2 C879.5,767.8 844.8,802.5 802.2,802.5 L141.8,802.5 C99.2,802.5 64.5,767.8 64.5,725.2 L64.5,142 C64.5,99.4 99.2,64.7 141.8,64.7 L802.2,64.7 C844.8,64.7 879.5,99.4 879.5,142 L879.5,725.2" id="shapePath1"></path>
                </g>
                <g id="Shape2" transform="translate(439.000000, 149.000000)" fill-rule="nonzero">
                    <path d="M33,435.2 C50.8,435.2 65.2,420.8 65.2,403 L65.2,32.8 C65.2,15 50.8,0.6 33,0.6 C15.2,0.6 0.8,15 0.8,32.8 L0.8,403 C0.8,420.8 15.2,435.2 33,435.2 Z" id="shapePath2"></path>
                </g>
                <g id="Shape3" transform="translate(406.000000, 624.000000)">
                    <path d="M131.2,65.5 C131.2,101.509 102.009,130.7 66,130.7 C29.991,130.7 0.8,101.509 0.8,65.5 C0.8,29.491 29.991,0.3 66,0.3 C102.009,0.3 131.2,29.491 131.2,65.5 Z" id="shapePath3"></path>
                </g>
            </g>
        </g>
    </g>
</svg>