<?xml version="1.0" encoding="UTF-8"?>
<svg width="884px" height="580px" viewBox="0 0 884 580" version="1.1" xmlns="http://www.w3.org/2000/svg" xmlns:xlink="http://www.w3.org/1999/xlink">
    <!-- Generator: Sketch 50.2 (55047) - http://www.bohemiancoding.com/sketch -->
    <title>font</title>
    <desc>Created with Sketch.</desc>
    <defs></defs>
    <g id="Page-1" stroke="none" stroke-width="1" fill="none" fill-rule="evenodd">
        <g id="Mobile" transform="translate(8695.500000, -3730.500000) scale(-1, 1) translate(-8695.500000, 3730.500000) translate(-2080.000000, -9466.000000)" fill="#FFFFFF" fill-rule="nonzero">
            <g id="font" transform="translate(19029.000000, 9756.000000) scale(-1, 1) translate(-19029.000000, -9756.000000) translate(18587.000000, 9466.000000)">
                <g id="Shape1" transform="translate(0.000000, 42.000000)">
                    <path d="M276.7,5.2 C275.6,2.6 273.1,0.8 270.2,0.8 L216.2,0.8 C213.3,0.8 210.8,2.5 209.7,5.2 L0.8,518.1 C-0.1,520.3 0.2,522.7 1.5,524.7 C2.8,526.6 5,527.8 7.3,527.8 L74.4,527.8 C77.3,527.8 79.9,526 80.9,523.4 L140.4,373.4 L345.3,373.4 L404.8,523.4 C405.9,526.1 408.4,527.8 411.3,527.8 L479.2,527.8 C481.5,527.8 483.7,526.6 485,524.7 C486.3,522.8 486.5,520.3 485.7,518.1 L276.7,5.2 M317.6,302.9 L168.2,302.9 L183.6,264.2 C202.6,216.6 222.7,163.5 243.3,106.4 C263.1,162.9 282.8,215.9 301.9,264.2 L317.6,302.9" id="shapePath1"></path>
                </g>
                <g id="Shape2" transform="translate(546.000000, 0.000000)">
                    <path d="M330.2,307.8 C325.2,288.4 318.4,271.5 309.9,257.3 C301.3,243 291.3,230.9 280.1,221.2 C269,211.7 257.2,203.9 245,198 C232.8,192.1 220.4,187.9 208,185.6 C169,178 137.7,182.4 111.3,194.1 C97.8,200 85.4,207.8 74.3,217.4 L74.3,7.7 C74.3,3.8 71.2,0.7 67.3,0.7 L7.9,0.7 C4,0.7 0.9,3.8 0.9,7.7 L0.9,562.8 C0.9,566.7 4,569.8 7.9,569.8 L52.8,569.8 C55.9,569.8 58.6,567.8 59.5,564.9 L68.4,536.2 C69.5,537.5 70.6,538.8 71.9,540.2 C77.3,546.3 84.2,552.1 93.2,558.1 C102,563.9 112.7,568.9 125.1,573.1 C137.8,577.3 152.4,579.4 168.5,579.4 C190,579.4 211.2,575.2 231.3,567 C251.6,558.8 269.8,546 285.5,529.1 C301.1,512.3 313.9,490.8 323.4,465.2 C332.8,439.7 337.6,409.2 337.6,374.6 C337.7,349.5 335.2,327.1 330.2,307.8 M261.6,379.1 C261.6,399.4 259.4,418.2 254.9,435 C250.5,451.6 244,466 235.5,477.9 C227.1,489.6 216.6,498.7 204.2,505.1 C191.9,511.5 177.3,514.7 160.8,514.7 C149.8,514.7 139.7,513.1 130.7,509.9 C121.5,506.7 113,502.7 105.5,498 C97.8,493.1 91.5,488.1 86.2,482.8 C81.5,478.2 77.5,473.7 74.3,469.5 L74.3,284.4 C85.7,273.7 98.8,264.7 113.4,257.8 C138.7,245.9 167.8,243.2 196.3,252.4 C207.2,255.8 217.7,262.3 227.5,271.7 C237.3,281 245.5,294.3 251.8,311.3 C258.3,328.4 261.6,351.3 261.6,379.1" id="shapePath2"></path>
                </g>
            </g>
        </g>
    </g>
</svg>