<?xml version="1.0" encoding="UTF-8"?>
<svg width="944px" height="944px" viewBox="0 0 944 944" version="1.1" xmlns="http://www.w3.org/2000/svg" xmlns:xlink="http://www.w3.org/1999/xlink">
    <!-- Generator: Sketch 50.2 (55047) - http://www.bohemiancoding.com/sketch -->
    <title>import</title>
    <desc>Created with Sketch.</desc>
    <defs></defs>
    <g id="Page-1" stroke="none" stroke-width="1" fill="none" fill-rule="evenodd">
        <g id="Mobile" transform="translate(-2672.500000, 5270.500000) scale(-1, 1) translate(2672.500000, -5270.500000) translate(-13448.000000, -465.000000)" fill="#FFFFFF" fill-rule="nonzero">
            <g id="import" transform="translate(7631.000000, 937.000000) scale(-1, 1) translate(-7631.000000, -937.000000) translate(7159.000000, 465.000000)">
                <g id="Shape1" transform="translate(232.000000, 0.000000)">
                    <path d="M55.7,514.4 C43.1,501.8 22.8,501.8 10.2,514.4 C-2.4,527 -2.4,547.3 10.2,559.9 L175,724.6 C188.7,738.3 206.8,745.2 224.8,745.3 C224.9,745.3 225,745.3 225,745.3 C225.1,745.3 225.2,745.3 225.2,745.3 C243.2,745.2 261.3,738.3 275,724.6 L439.8,559.8 C452.4,547.2 452.4,526.9 439.8,514.3 C427.2,501.7 406.9,501.7 394.3,514.3 L257.2,651.5 L257.2,32.4 C257.2,14.6 242.8,0.2 225,0.2 C207.2,0.2 192.8,14.6 192.8,32.4 L192.8,651.6 L55.7,514.4 Z" id="shapePath1"></path>
                </g>
                <g id="Shape2" transform="translate(0.000000, 308.000000)">
                    <path d="M802.2,1 L650.2,1 C632.4,1 618,15.4 618,33.2 C618,51 632.4,65.4 650.2,65.4 L802.2,65.4 C844.8,65.4 879.5,100.1 879.5,142.7 L879.5,494.3 C879.5,536.9 844.8,571.6 802.2,571.6 L141.8,571.6 C99.2,571.6 64.5,536.9 64.5,494.3 L64.5,142.6 C64.5,100 99.2,65.3 141.8,65.3 L298.1,65.3 C315.9,65.3 330.3,50.9 330.3,33.1 C330.3,15.3 315.9,0.9 298.1,0.9 L141.8,0.9 C63.7,0.9 0.2,64.4 0.2,142.5 L0.2,494.1 C0.2,572.2 63.7,635.7 141.8,635.7 L802.2,635.7 C880.3,635.7 943.8,572.2 943.8,494.1 L943.8,142.6 C943.8,64.5 880.3,1 802.2,1 Z" id="shapePath2"></path>
                </g>
            </g>
        </g>
    </g>
</svg>