<?xml version="1.0" encoding="UTF-8"?>
<svg width="944px" height="868px" viewBox="0 0 944 868" version="1.1" xmlns="http://www.w3.org/2000/svg" xmlns:xlink="http://www.w3.org/1999/xlink">
    <!-- Generator: Sketch 50.2 (55047) - http://www.bohemiancoding.com/sketch -->
    <title>key</title>
    <desc>Created with Sketch.</desc>
    <defs></defs>
    <g id="Page-1" stroke="none" stroke-width="1" fill="none" fill-rule="evenodd">
        <g id="Mobile" transform="translate(-6807.500000, 1661.500000) scale(-1, 1) translate(6807.500000, -1661.500000) translate(-17583.000000, -4074.000000)" fill="#FFFFFF" fill-rule="nonzero">
            <g id="key" transform="translate(3496.000000, 4508.000000) scale(-1, 1) translate(-3496.000000, -4508.000000) translate(3024.000000, 4074.000000)">
                <g id="Shape1">
                    <path d="M931.1,84 C918.7,51.6 893.1,25.9 860.7,13.5 C842.9,5.4 823.1,0.7 802.3,0.7 L141.8,0.7 C63.7,0.7 0.2,64.2 0.2,142.3 L0.2,725.5 C0.2,762.9 14.9,796.9 38.6,822.2 C38.7,822.3 38.8,822.5 38.9,822.6 C39,822.7 39.1,822.7 39.2,822.8 C65,850 101.4,867.1 141.8,867.1 L802.2,867.1 C880.3,867.1 943.8,803.6 943.8,725.5 L943.8,142.4 C943.8,121.6 939.2,101.9 931.1,84 M181.2,630.2 L181.2,127.3 C181.2,98.8 199.3,74.6 224.5,65.1 L802.2,65.1 C844.8,65.1 879.5,99.8 879.5,142.4 L879.5,653.5 C870,678.7 845.8,696.9 817.3,696.9 L247.8,696.9 C211.1,696.8 181.2,666.9 181.2,630.2 M64.5,142.4 C64.5,99.8 99.2,65.1 141.8,65.1 L143.4,65.1 C132.5,83.4 125.8,104.5 125.8,127.3 L125.8,630.2 C125.8,648.5 130.1,665.7 137.4,681.4 L68.5,748.8 C66.2,741.4 64.6,733.8 64.6,725.6 L64.6,142.4 L64.5,142.4 M802.2,802.9 L141.8,802.9 C131.1,802.9 120.8,800.7 111.5,796.7 L178.8,730.8 C198.5,744.3 222.2,752.3 247.8,752.3 L817.2,752.3 C839.6,752.3 860.4,745.8 878.4,735.2 C873.7,773.2 841.5,802.9 802.2,802.9" id="shapePath1"></path>
                </g>
                <g id="Shape2" transform="translate(318.000000, 126.000000)">
                    <path d="M38.3,481.4 C51.2,494 67.8,504.2 87.8,511.8 C107.7,519.4 131.9,523.3 159.5,523.3 C188.3,523.3 217.2,518.3 245.2,508.6 C271.4,499.5 296.4,486.4 319.4,469.5 C330.5,480.9 339.8,490.4 347.4,498 L361.6,512.1 C362.8,513.3 364.4,514 366.1,514 L438.6,514 C438.8,514 438.9,514 438.9,514 C442.4,514 445.3,511.1 445.3,507.6 C445.3,505.2 444,503.1 442,502 L434.4,494.4 C429.9,489.9 424.1,484 417,476.7 L392.5,451.4 C384.5,443.1 376,434.3 366.9,425.1 C384.9,403.4 399.6,378.5 410.7,351 C422.6,321.5 428.9,288.2 429.4,252 C429.4,250.3 428.7,248.6 427.5,247.4 C426.3,246.2 424.7,245.5 422.9,245.5 L363.3,245.5 C359.8,245.5 356.9,248.3 356.9,251.8 C356.4,280.6 352.5,306.1 345.3,327.8 C339,346.6 330.8,363.4 320.8,377.9 C311,367.7 301.1,357.5 291.2,347.2 L203.3,256.8 C215.2,250.1 226.9,243.1 238.2,235.8 C252.1,226.8 264.6,216.6 275.4,205.3 C286.4,193.8 295.3,180.7 302,166.2 C308.7,151.5 312.1,134.4 312.1,115.2 C312.1,96.6 308.4,79.9 301.1,65.6 C293.8,51.3 283.8,39.2 271.2,29.4 C258.7,19.7 243.9,12.4 227.2,7.5 C210.6,2.7 192.5,0.3 173.4,0.3 C152.5,0.3 133.2,3 116,8.3 C98.6,13.7 83.5,21.6 70.8,31.9 C58.1,42.3 48.2,55.1 41.3,70 C34.4,84.9 30.9,102 30.9,121 C30.9,134.9 32.9,147.8 36.7,159.6 C40.6,171.2 45.9,182.4 52.7,192.9 C59.4,203.3 67.3,213.3 76.2,222.8 C83,230.1 90.3,237.5 98,245 C87.3,251.2 76.8,258 66.7,265.2 C54.1,274.2 42.7,284.6 33,296 C23.1,307.6 15.2,321.2 9.5,336.3 C3.7,351.4 0.8,369.1 0.8,389 C0.8,405.6 3.8,422.2 9.7,438.1 C15.8,454.1 25.4,468.7 38.3,481.4 M117.9,307.1 C125.6,301.3 134.1,295.7 143.1,290.4 L205.6,354.3 C218,366.9 230.5,379.7 243.1,392.7 C253.9,403.8 264.3,414.5 274.5,424.9 C266.6,430.4 258.4,435.3 250,439.4 C239.3,444.7 228.7,449 218.4,452.3 C207.9,455.6 197.6,458.1 187.6,459.6 C160.9,463.7 137.9,462.3 120.8,455.4 C110,451.1 101.1,445.3 94.2,438.1 C87.3,431 82.1,422.7 78.7,413.5 C75.3,404.2 73.6,394.4 73.6,384.5 C73.6,373.1 75.5,362.8 79.2,353.9 C83,344.8 88.2,336.3 94.7,328.8 C101.1,321.1 109,313.8 117.9,307.1 M188.8,196.3 C179.5,202.1 169.7,207.7 159.7,213 C151.3,204.8 143.8,197.1 137.1,190 C129.8,182.2 123.5,174.4 118.5,166.9 C113.5,159.5 109.8,152 107.3,144.6 C104.8,137.2 103.6,129.2 103.6,120.9 C103.6,101.4 109.4,87 121.2,76.9 C133.2,66.7 150.1,61.5 171.4,61.5 C181.8,61.5 191.4,62.7 200.1,65 C208.3,67.2 215.5,70.7 221.4,75.5 C227.2,80.2 231.8,86.2 235,93.4 C238.3,100.6 239.9,109.6 239.9,120.2 C239.9,131.7 237.8,142 233.5,150.9 C229.2,159.9 223.2,168.2 215.7,175.5 C208.1,183 199,190 188.8,196.3" id="shapePath2"></path>
                </g>
            </g>
        </g>
    </g>
</svg>