<?xml version="1.0" encoding="UTF-8"?>
<svg width="890px" height="906px" viewBox="0 0 890 906" version="1.1" xmlns="http://www.w3.org/2000/svg" xmlns:xlink="http://www.w3.org/1999/xlink">
    <!-- Generator: Sketch 50.2 (55047) - http://www.bohemiancoding.com/sketch -->
    <title>rotation</title>
    <desc>Created with Sketch.</desc>
    <defs></defs>
    <g id="Page-1" stroke="none" stroke-width="1" fill="none" fill-rule="evenodd" stroke-linecap="round" stroke-linejoin="round">
        <g id="Mobile" transform="translate(8092.500000, 1837.500000) scale(-1, 1) translate(-8092.500000, -1837.500000) translate(-2683.000000, -3898.000000)" stroke="#FFFFFF" stroke-width="61">
            <g id="rotation" transform="translate(18423.000000, 4351.000000) scale(-1, 1) translate(-18423.000000, -4351.000000) translate(18008.000000, 3880.000000)">
                <g id="canvas1-group" transform="translate(502.000000, 0.000000)">
                    <path d="M127.5,103.5 C237.96,103.5 327.5,193.04 327.5,303.5" id="canvas1-oval"></path>
                    <polyline id="canvas1-bezier5" transform="translate(105.040000, 89.850000) rotate(-74.320000) translate(-105.040000, -89.850000) " points="37.04 179.35 112.04 0.35 173.04 179.35"></polyline>
                </g>
                <rect id="canvas1-rectangle2" transform="translate(402.500000, 471.500000) rotate(-13.550000) translate(-402.500000, -471.500000) " x="193.5" y="262.5" width="418" height="418"></rect>
                <g id="canvas1-group3" transform="translate(164.500000, 789.850000) rotate(-180.000000) translate(-164.500000, -789.850000) translate(0.500000, 637.850000)">
                    <path d="M128,103.65 C238.46,103.65 328,193.2 328,303.65" id="canvas1-oval2"></path>
                    <polyline id="canvas1-bezier2" transform="translate(105.540000, 90.000000) rotate(-74.320000) translate(-105.540000, -90.000000) " points="37.54 179.5 112.54 0.5 173.54 179.5"></polyline>
                </g>
            </g>
        </g>
    </g>
</svg>