<?xml version="1.0" encoding="UTF-8"?>
<svg width="1069px" height="993px" viewBox="0 0 1069 993" version="1.1" xmlns="http://www.w3.org/2000/svg" xmlns:xlink="http://www.w3.org/1999/xlink">
    <!-- Generator: Sketch 50.2 (55047) - http://www.bohemiancoding.com/sketch -->
    <title>saturation</title>
    <desc>Created with Sketch.</desc>
    <defs></defs>
    <g id="Page-1" stroke="none" stroke-width="1" fill="none" fill-rule="evenodd" stroke-linecap="round" stroke-linejoin="round">
        <g id="Mobile" transform="translate(5174.500000, 4632.500000) scale(-1, 1) translate(-5174.500000, -4632.500000) translate(-5601.000000, -1103.000000)" stroke="#FFFFFF" stroke-width="61">
            <g id="saturation" transform="translate(15415.500000, 1599.500000) scale(-1, 1) translate(-15415.500000, -1599.500000) translate(14911.000000, 1133.000000)">
                <path d="M0.5,700.5 C232.04,932.04 232.5,932.5 232.5,932.5" id="starCanvas-bezier" opacity="0.1"></path>
                <path d="M95.5,630.5 C327.04,862.04 327.5,862.5 327.5,862.5" id="starCanvas-bezier2" opacity="0.3"></path>
                <path d="M191.5,545.5 C423.04,777.04 423.5,777.5 423.5,777.5" id="starCanvas-bezier3" opacity="0.5"></path>
                <path d="M290.5,451.5 C522.04,683.04 522.5,683.5 522.5,683.5" id="starCanvas-bezier4" opacity="0.7"></path>
                <path d="M393.5,365.5 C625.04,597.04 625.5,597.5 625.5,597.5" id="starCanvas-bezier5"></path>
                <path d="M481.5,276.5 C713.04,508.04 713.5,508.5 713.5,508.5" id="starCanvas-bezier6" opacity="0.7"></path>
                <path d="M589.5,184.5 C821.04,416.04 821.5,416.5 821.5,416.5" id="starCanvas-bezier7" opacity="0.5"></path>
                <path d="M685.5,98.5 C917.04,330.04 917.5,330.5 917.5,330.5" id="starCanvas-bezier8" opacity="0.3"></path>
                <path d="M776.5,0.5 C1008.04,232.04 1008.5,232.5 1008.5,232.5" id="starCanvas-bezier9" opacity="0.1"></path>
            </g>
        </g>
    </g>
</svg>