<?xml version="1.0" encoding="UTF-8"?>
<svg width="782px" height="862px" viewBox="0 0 782 862" version="1.1" xmlns="http://www.w3.org/2000/svg" xmlns:xlink="http://www.w3.org/1999/xlink">
    <!-- Generator: Sketch 50.2 (55047) - http://www.bohemiancoding.com/sketch -->
    <title>audio</title>
    <desc>Created with Sketch.</desc>
    <defs></defs>
    <g id="Page-1" stroke="none" stroke-width="1" fill="none" fill-rule="evenodd">
        <g id="Mobile" transform="translate(7623.500000, 3274.500000) scale(-1, 1) translate(-7623.500000, -3274.500000) translate(-3152.000000, -2461.000000)" fill="#FFFFFF" fill-rule="nonzero">
            <g id="audio" transform="translate(18008.000000, 2892.000000) scale(-1, 1) translate(-18008.000000, -2892.000000) translate(17617.000000, 2461.000000)">
                <path d="M781.4,32.6 C781.4,21.9 776.1,12 767.3,6 C758.5,-3.20299343e-14 747.2,-1.2 737.3,2.7 L226.7,206.1 C214.5,211 206.4,222.8 206.4,236 L206.4,612.4 C185.7,599.6 161.6,591.8 135.5,591.8 C61,591.8 0.6,652.2 0.6,726.7 C0.6,801.2 61,861.6 135.5,861.6 C210,861.6 270.4,801.2 270.4,726.7 C270.4,725.1 270,723.6 269.9,722 C270.1,720.6 270.7,719.4 270.7,718 L270.7,306.6 L717,123.9 L717,436.9 C696.3,424.1 672.2,416.3 646.1,416.3 C571.6,416.3 511.2,476.7 511.2,551.2 C511.2,625.7 571.6,686.1 646.1,686.1 C720.6,686.1 781,625.7 781,551.2 C781,546.6 780.1,542.2 779.6,537.7 C780.3,535 781.3,532.3 781.3,529.4 L781.3,32.6 L781.4,32.6 M135.5,797.3 C96.6,797.3 64.9,765.6 64.9,726.7 C64.9,687.8 96.6,656.1 135.5,656.1 C174.4,656.1 206.1,687.8 206.1,726.7 C206.1,765.6 174.5,797.3 135.5,797.3 M646.1,621.9 C607.2,621.9 575.5,590.2 575.5,551.3 C575.5,512.4 607.2,480.7 646.1,480.7 C685,480.7 716.7,512.4 716.7,551.3 C716.8,590.2 685.1,621.9 646.1,621.9" id="shapePath1"></path>
            </g>
        </g>
    </g>
</svg>