<?xml version="1.0" encoding="UTF-8"?>
<svg width="972px" height="930px" viewBox="0 0 972 930" version="1.1" xmlns="http://www.w3.org/2000/svg" xmlns:xlink="http://www.w3.org/1999/xlink">
    <!-- Generator: Sketch 50.2 (55047) - http://www.bohemiancoding.com/sketch -->
    <title>star</title>
    <desc>Created with Sketch.</desc>
    <defs></defs>
    <g id="Page-1" stroke="none" stroke-width="1" fill="none" fill-rule="evenodd">
        <g id="Mobile" transform="translate(-1496.500000, 1463.500000) scale(-1, 1) translate(1496.500000, -1463.500000) translate(-12272.000000, -4272.000000)" fill="#FFFFFF" fill-rule="nonzero">
            <g id="star" transform="translate(8793.000000, 4737.000000) scale(-1, 1) translate(-8793.000000, -4737.000000) translate(8307.000000, 4272.000000)">
                <path d="M969.7,356 C966,344.3 956,335.7 943.9,333.9 L647.9,288.6 L517.5,19 C512.2,8 501,1 488.8,0.9 C477.1,0.7 465.3,7.7 459.8,18.6 L325.2,286.1 L28.6,326.9 C16.5,328.6 6.3,337 2.5,348.6 C-1.4,360.2 1.7,373 10.4,381.6 L223.2,592.2 L170.3,886.9 C168.1,898.9 173,911.2 182.9,918.5 C192.7,925.7 205.9,926.8 216.8,921.2 L482.9,783.9 L746.9,925.3 C751.6,927.9 756.9,929.1 762.1,929.1 C762.3,929.1 762.5,929.1 762.6,929.1 C780.4,929.1 794.8,914.7 794.8,896.9 C794.8,893.1 794.2,889.5 793,886.1 L745.6,596.2 L961.6,388.8 C970.1,380.4 973.4,367.6 969.7,356 M688.6,561.5 C681,568.8 677.4,579.4 679.1,589.9 L719.6,837.7 L498.2,719.2 C493.5,716.7 488.2,715.4 483,715.4 C477.9,715.4 472.9,716.6 468.2,719 L245.1,834.1 L289.5,586.9 C291.4,576.5 288,565.8 280.5,558.4 L101.9,381.7 L350.7,347.5 C361.2,346.1 370.3,339.6 375.1,330.1 L488,105.7 L597.4,331.8 C602,341.3 611,348 621.5,349.6 L869.7,387.6 L688.6,561.5" id="shapePath1"></path>
            </g>
        </g>
    </g>
</svg>