<?xml version="1.0" encoding="UTF-8"?>
<svg width="894px" height="910px" viewBox="0 0 894 910" version="1.1" xmlns="http://www.w3.org/2000/svg" xmlns:xlink="http://www.w3.org/1999/xlink">
    <!-- Generator: Sketch 50.2 (55047) - http://www.bohemiancoding.com/sketch -->
    <title>text</title>
    <desc>Created with Sketch.</desc>
    <defs></defs>
    <g id="Page-1" stroke="none" stroke-width="1" fill="none" fill-rule="evenodd">
        <g id="Mobile" transform="translate(-5377.500000, -1056.500000) scale(-1, 1) translate(5377.500000, 1056.500000) translate(-16153.000000, -6792.000000)" fill="#FFFFFF" fill-rule="nonzero">
            <g id="text" transform="translate(4951.000000, 7247.000000) scale(-1, 1) translate(-4951.000000, -7247.000000) translate(4504.000000, 6792.000000)">
                <g id="Shape1" transform="translate(166.000000, 242.000000)">
                    <path d="M529.2,0.3 L32.7,0.3 C14.9,0.3 0.5,14.7 0.5,32.5 C0.5,50.3 14.9,64.7 32.7,64.7 L248.8,64.7 L248.8,498.5 C248.8,516.3 263.2,530.7 281,530.7 C298.8,530.7 313.2,516.3 313.2,498.5 L313.2,64.7 L529.3,64.7 C547.1,64.7 561.5,50.3 561.5,32.5 C561.4,14.7 547,0.3 529.2,0.3 Z" id="shapePath1"></path>
                </g>
                <g id="Shape2">
                    <path d="M846.3,764.9 C848.6,755.5 850.1,745.8 850.1,735.7 L850.1,178.3 C850.1,166.9 848.1,156 845.1,145.5 C873.1,134.6 893.1,107.5 893.1,75.6 C893.1,34.1 859.4,0.4 817.9,0.4 C783.2,0.4 754.3,24 745.6,55.9 C739,54.8 732.4,53.9 725.5,53.9 L168.3,53.9 C161.4,53.9 154.8,54.9 148.2,55.9 C139.5,24 110.6,0.4 75.9,0.4 C34.4,0.4 0.7,34.1 0.7,75.6 C0.7,107.5 20.6,134.6 48.7,145.5 C45.8,156 43.7,166.9 43.7,178.3 L43.7,735.6 C43.7,745.7 45.2,755.4 47.5,764.8 C20,776 0.6,802.9 0.6,834.4 C0.6,875.9 34.3,909.6 75.8,909.6 C109,909.6 136.9,887.9 146.9,858 C153.9,859.2 160.9,860.2 168.2,860.2 L725.5,860.2 C732.8,860.2 739.8,859.3 746.8,858 C756.7,887.9 784.6,909.6 817.9,909.6 C859.4,909.6 893.1,875.9 893.1,834.4 C893.2,802.9 873.8,776.1 846.3,764.9 M168.3,795.8 C135.1,795.8 108.1,768.8 108.1,735.6 L108.1,178.3 C108.1,145.1 135.1,118.1 168.3,118.1 L725.6,118.1 C758.8,118.1 785.8,145.1 785.8,178.3 L785.8,735.6 C785.8,768.8 758.8,795.8 725.6,795.8 L168.3,795.8" id="shapePath2"></path>
                </g>
            </g>
        </g>
    </g>
</svg>