<?xml version="1.0" encoding="UTF-8"?>
<svg width="702px" height="1022px" viewBox="0 0 702 1022" version="1.1" xmlns="http://www.w3.org/2000/svg" xmlns:xlink="http://www.w3.org/1999/xlink">
    <!-- Generator: Sketch 50.2 (55047) - http://www.bohemiancoding.com/sketch -->
    <title>tidy</title>
    <desc>Created with Sketch.</desc>
    <defs></defs>
    <g id="Page-1" stroke="none" stroke-width="1" fill="none" fill-rule="evenodd">
        <g id="Mobile" transform="translate(-1631.500000, -489.500000) scale(-1, 1) translate(1631.500000, 489.500000) translate(-12407.000000, -6225.000000)" fill="#FFFFFF" fill-rule="nonzero">
            <g id="tidy" transform="translate(8793.000000, 6736.000000) scale(-1, 1) translate(-8793.000000, -6736.000000) translate(8442.000000, 6225.000000)">
                <path d="M0.58,1018.51 C0.58,1018.51 25.01,934.85 56.42,833.76 C84.33,736.16 108.76,649.01 108.76,642.04 C108.76,621.12 119.23,589.75 136.68,554.89 C147.15,530.49 157.62,516.54 178.55,495.63 C192.51,481.68 216.94,464.25 227.41,457.28 L251.84,443.34 L251.84,258.59 L255.33,73.83 L262.31,52.92 C279.75,21.54 307.67,4.11 342.57,0.63 C387.93,-2.86 419.34,18.06 440.28,56.4 L450.75,77.32 L450.75,258.59 L450.75,443.34 L468.19,453.8 C496.11,467.74 527.52,495.63 544.97,516.54 C572.88,554.89 593.82,610.66 593.82,645.52 C593.82,652.49 632.21,784.96 702,1015.03 C702,1022 684.55,1022 353.04,1022 C157.62,1022 0.58,1022 0.58,1018.51 M199.49,861.65 C209.96,816.33 223.92,774.5 227.41,771.01 C230.9,760.56 251.84,760.56 262.31,771.01 C272.77,777.99 269.29,791.93 251.84,868.62 C237.88,910.45 230.9,941.82 230.9,941.82 C230.9,945.31 251.84,945.31 279.75,945.31 L325.12,945.31 L325.12,861.65 C325.12,781.47 325.12,777.99 332.1,771.01 C342.57,760.56 360.02,760.56 370.48,774.5 C377.46,781.47 377.46,788.44 377.46,865.13 L377.46,945.31 L429.81,945.31 C471.68,945.31 485.64,945.31 482.15,941.82 C478.66,924.39 443.77,791.93 443.77,784.96 C443.77,767.53 475.17,757.07 485.64,771.01 C489.13,774.5 503.09,812.85 513.56,854.68 C524.03,896.51 534.5,934.85 537.99,938.34 C537.99,945.31 541.48,945.31 569.39,945.31 C586.84,945.31 597.31,945.31 597.31,941.82 C597.31,938.34 544.97,757.07 531.01,722.21 L527.52,704.78 L349.55,704.78 L175.07,708.27 L154.13,774.5 C143.66,812.85 126.21,865.13 119.23,893.02 L101.78,945.31 L140.17,945.31 L178.55,945.31 L199.49,861.65 M510.07,621.12 C492.62,561.86 440.28,513.06 377.46,502.6 C307.67,488.66 234.39,527 202.98,589.75 C199.49,603.69 192.51,617.63 192.51,621.12 L189.02,628.09 L353.04,628.09 L513.56,628.09 L510.07,621.12 M373.97,265.56 C373.97,181.9 373.97,105.21 370.48,98.23 C367,77.32 349.55,70.35 335.59,84.29 C328.61,91.26 328.61,94.75 328.61,258.59 L328.61,422.42 L349.55,422.42 L373.97,422.42 L373.97,265.56" id="shapePath1"></path>
            </g>
        </g>
    </g>
</svg>