<?xml version="1.0" encoding="UTF-8"?>
<svg width="684px" height="944px" viewBox="0 0 684 944" version="1.1" xmlns="http://www.w3.org/2000/svg" xmlns:xlink="http://www.w3.org/1999/xlink">
    <!-- Generator: Sketch 50.2 (55047) - http://www.bohemiancoding.com/sketch -->
    <title>touch_event</title>
    <desc>Created with Sketch.</desc>
    <defs></defs>
    <g id="Page-1" stroke="none" stroke-width="1" fill="none" fill-rule="evenodd">
        <g id="Mobile" transform="translate(7989.500000, 4933.500000) scale(-1, 1) translate(-7989.500000, -4933.500000) translate(-2786.000000, -802.000000)" fill="#FFFFFF" fill-rule="nonzero">
            <g id="touch_event" transform="translate(18423.000000, 1274.000000) scale(-1, 1) translate(-18423.000000, -1274.000000) translate(18081.000000, 802.000000)">
                <g id="Shape1" transform="translate(64.000000, 0.000000)">
                    <path d="M68,348.8 C74.7,348.8 81.5,346.7 87.3,342.3 C101.5,331.6 104.3,311.4 93.6,297.3 C74.6,272 64.5,241.9 64.5,210.1 C64.5,130.1 129.6,65 209.6,65 C289.6,65 354.7,130 354.7,210.1 C354.7,241.9 344.6,272 325.6,297.3 C314.9,311.5 317.7,331.7 331.9,342.3 C346.1,353 366.3,350.2 376.9,336 C404.4,299.5 418.9,256 418.9,210.1 C418.9,94.6 324.9,0.7 209.5,0.7 C94,0.7 0.1,94.7 0.1,210.1 C0.1,255.9 14.6,299.5 42.2,336 C48.6,344.4 58.2,348.8 68,348.8 Z" id="shapePath1"></path>
                </g>
                <g id="Shape2" transform="translate(0.000000, 103.000000)">
                    <path d="M680.5,435 L679,419.2 C674.3,365.1 632.4,324.2 581.4,324.2 C576.3,324.2 571.3,324.6 566.3,325.4 C548.7,298.2 518.1,280.6 484.2,280.6 C474.1,280.6 464.3,282.2 454.8,285.2 C432.8,264.4 400.7,254.6 370.6,260.2 L370.6,98.6 C370.6,44.3 326.4,0.1 272.1,0.1 C217.8,0.1 173.6,44.3 173.6,98.6 L173.6,351.4 C155.2,328.6 127.2,314.9 97.7,314.9 C43.8,314.9 0,358.7 0,412.6 C0,427.6 3.7,442.7 10.6,456.4 C10.9,457.2 11.2,458 11.5,458.8 C11.9,459.8 56.1,560.5 113.8,668.9 C178,789.5 235.4,832.5 237.8,834.3 C243.3,838.3 250,840.5 256.8,840.5 L543.4,840.5 C551.8,840.5 559.9,837.2 565.9,831.3 C622.5,775.7 654.3,702 675.8,577 C687.7,509.1 684,471.4 680.5,435 M612.6,566 C594.6,670.6 571,731.1 529.9,776.1 L268.8,776.1 C253.1,761.5 214.2,720.5 170.6,638.6 C121,545.5 81.7,458.3 72.5,437.6 C71.8,434.7 70.6,431.9 69.1,429.3 C65.9,423.9 64.3,418.3 64.3,412.5 C64.3,394.1 79.3,379.1 97.7,379.1 C109.5,379.1 120.2,385.3 126.3,395.8 C127,397 127.7,398.1 128.6,399.1 L178,483.3 C185.4,495.8 200.2,501.9 214.2,498.1 C228.2,494.3 237.9,481.6 237.9,467.1 L237.9,98.6 C237.9,79.8 253.2,64.5 272.1,64.5 C291,64.5 306.2,79.8 306.2,98.6 L306.2,314.1 C306.2,327.6 314.6,339.6 327.3,344.3 C339.9,349 354.1,345.2 362.9,335 C366.7,330.5 375.1,323 388.2,323 C400.3,323 411.5,329.8 417.4,340.8 C421.8,349 429.5,354.9 438.6,356.9 C447.6,359 457.2,357 464.7,351.5 C468.8,348.5 475.5,344.9 484.3,344.9 C500.2,344.9 513.9,356.2 517,371.7 C519,381.9 525.9,390.5 535.4,394.8 C544.9,399.1 555.9,398.5 564.9,393.2 C570.3,390 575.9,388.5 581.6,388.5 C602.5,388.5 613.6,407.2 615.1,424.7 L616.6,441.2 C619.8,474.9 622.8,506.7 612.6,566" id="shapePath2"></path>
                </g>
            </g>
        </g>
    </g>
</svg>