<?xml version="1.0" encoding="UTF-8"?>
<svg width="938px" height="712px" viewBox="0 0 938 712" version="1.1" xmlns="http://www.w3.org/2000/svg" xmlns:xlink="http://www.w3.org/1999/xlink">
    <!-- Generator: Sketch 50.2 (55047) - http://www.bohemiancoding.com/sketch -->
    <title>video</title>
    <desc>Created with Sketch.</desc>
    <defs></defs>
    <g id="Page-1" stroke="none" stroke-width="1" fill="none" fill-rule="evenodd">
        <g id="Mobile" transform="translate(-9305.500000, 3874.500000) scale(-1, 1) translate(9305.500000, -3874.500000) translate(-20081.000000, -1861.000000)" fill="#FFFFFF" fill-rule="nonzero">
            <g id="video" transform="translate(1001.000000, 2217.000000) scale(-1, 1) translate(-1001.000000, -2217.000000) translate(532.000000, 1861.000000)">
                <path d="M928.4,56.6 C894.2,22.4 838.5,22.3 804.3,56.6 L686.5,174.4 L686.5,141.6 C686.5,63.5 623,0 544.9,0 L141.8,0 C63.7,0 0.2,63.5 0.2,141.6 L0.2,570.4 C0.2,648.5 63.7,712 141.8,712 L544.9,712 C623,712 686.5,648.5 686.5,570.4 L686.5,537.6 L804.3,655.4 C821.4,672.5 843.9,681.1 866.3,681.1 C888.8,681.1 911.3,672.6 928.4,655.4 C934.4,649.4 937.8,641.2 937.8,632.7 L937.8,79.4 C937.8,70.9 934.4,62.7 928.4,56.6 M544.9,647.7 L141.8,647.7 C99.2,647.7 64.5,613 64.5,570.4 L64.5,141.6 C64.5,99 99.2,64.3 141.8,64.3 L544.9,64.3 C587.5,64.3 622.2,99 622.2,141.6 L622.2,459.3 C622.2,459.7 622.2,460 622.2,460.3 L622.2,570.3 C622.1,613 587.5,647.7 544.9,647.7 M873.5,615.6 C865.5,618.2 856,616 849.8,609.8 L686.5,446.6 L686.5,265.4 L849.8,102.1 C856,95.9 865.5,93.8 873.5,96.3 L873.5,615.6" id="shapePath1"></path>
            </g>
        </g>
    </g>
</svg>