<?xml version="1.0" encoding="UTF-8"?>
<svg width="570px" height="908px" viewBox="0 0 570 908" version="1.1" xmlns="http://www.w3.org/2000/svg" xmlns:xlink="http://www.w3.org/1999/xlink">
    <!-- Generator: Sketch 50.2 (55047) - http://www.bohemiancoding.com/sketch -->
    <title>time</title>
    <desc>Created with Sketch.</desc>
    <defs></defs>
    <g id="Page-1" stroke="none" stroke-width="1" fill="none" fill-rule="evenodd">
        <g id="Mobile" transform="translate(285.500000, 2371.500000) scale(-1, 1) translate(-285.500000, -2371.500000) translate(-10490.000000, -3364.000000)" fill="#FFFFFF" fill-rule="nonzero">
            <g id="time" transform="translate(10776.000000, 3818.000000) scale(-1, 1) translate(-10776.000000, -3818.000000) translate(10491.000000, 3364.000000)">
                <path d="M569.4,670.6 C568.7,648.6 559.8,627.5 544.3,612 C543.6,611.3 542.9,610.7 542.1,610 L354.6,454.2 L542.5,298 C543.3,297.4 544,296.7 544.7,296 C562.3,278.4 571.4,253.8 569.7,230.9 L569.7,103.7 C569.7,46.7 523.3,0.4 466.3,0.4 L103.6,0.4 C46.6,0.4 0.2,46.8 0.2,103.7 L0.2,232.7 C0.2,234.3 0.3,235.9 0.6,237.4 C1.3,259.4 10.2,280.5 25.7,296 C26.4,296.7 27.1,297.3 27.9,298 L215.4,453.9 L27.5,610 C26.7,610.6 26,611.3 25.3,612 C7.7,629.6 -1.4,654.2 0.3,677.1 L0.3,804.3 C0.3,861.3 46.7,907.6 103.7,907.6 L466.4,907.6 C523.4,907.6 569.8,861.2 569.8,804.3 L569.8,675.3 C569.8,673.7 569.7,672.1 569.4,670.6 M64.9,234 C65,232 64.9,230.1 64.6,228.1 L64.6,114.6 L505.4,114.6 L505.5,233.2 C505.8,236.9 505.4,243.8 500.1,249.6 L303,413.4 C302.2,414 301.5,414.7 300.8,415.4 C292.4,423.7 277.8,423.7 269.5,415.4 C268.8,414.7 268.1,414 267.3,413.4 L70.3,249.7 C65.3,244 64.7,237.5 64.9,234 M70,658.3 L267,494.6 C267.8,494 268.5,493.3 269.2,492.6 C277.6,484.3 292.2,484.3 300.5,492.6 C301.2,493.3 301.9,494 302.7,494.6 L499.7,658.3 C504.8,663.9 505.3,670.5 505.2,674 C505.1,676 505.2,677.9 505.5,679.9 L505.5,797.9 L64.7,797.9 L64.6,674.8 C64.3,671.1 64.7,664.2 70,658.3" id="shapePath1"></path>
            </g>
        </g>
    </g>
</svg>