<?xml version="1.0" encoding="UTF-8"?>
<svg width="944px" height="942px" viewBox="0 0 944 942" version="1.1" xmlns="http://www.w3.org/2000/svg" xmlns:xlink="http://www.w3.org/1999/xlink">
    <!-- Generator: Sketch 50.2 (55047) - http://www.bohemiancoding.com/sketch -->
    <title>blocks</title>
    <desc>Created with Sketch.</desc>
    <defs></defs>
    <g id="Page-1" stroke="none" stroke-width="1" fill="none" fill-rule="evenodd">
        <g id="Mobile" transform="translate(6457.500000, 5261.500000) scale(-1, 1) translate(-6457.500000, -5261.500000) translate(-4318.000000, -474.000000)" fill="#FFFFFF" fill-rule="nonzero">
            <g id="blocks" transform="translate(16761.000000, 945.000000) scale(-1, 1) translate(-16761.000000, -945.000000) translate(16289.000000, 474.000000)">
                <path d="M802.284888,0 L141.815005,0 C63.7067407,0 0,63.9 0,142 L0,725.2 C0,803.3 63.7067407,867 141.815005,867 L294.131121,867 C279.129534,872 268.328391,886.5 268.328391,903.3 C268.328391,924.6 285.630222,942 306.932476,942 L637.067407,942 C658.369661,942 675.671491,924.6 675.671491,903.3 C675.671491,886.5 664.870348,872 649.868761,867 L802.184877,867 C880.293142,867 943.999882,803.3 943.999882,725.2 L943.999882,142 C944.099893,63.9 880.393152,0 802.284888,0 M880.093121,725.7 C880.093121,768.4 845.489459,803 802.784941,803 L142.315058,803 C99.6105396,803 65.0068782,768.4 65.0068782,725.7 L65.0068782,142.3 C65.0068782,99.6 99.6105396,65 142.315058,65 L802.884951,65 C845.58947,65 880.193131,99.6 880.193131,142.3 L880.193131,725.7 L880.093121,725.7 M316.033439,592 L276.029206,592 L276.029206,367 L613.064867,367 L613.064867,226 L114.012063,226 L114.012063,367 L212.022434,367 L212.022434,624.3 C212.022434,642.1 226.123926,656 243.925809,656 L316.033439,656 L316.033439,684 L809.085607,684 L809.085607,542 L316.033439,542 L316.033439,592" id="shapePath1"></path>
            </g>
        </g>
    </g>
</svg>