<?xml version="1.0" encoding="UTF-8"?>
<!DOCTYPE svg PUBLIC "-//W3C//DTD SVG 1.1//EN" "http://www.w3.org/Graphics/SVG/1.1/DTD/svg11.dtd">
<svg version="1.1" xmlns="http://www.w3.org/2000/svg" xmlns:xlink="http://www.w3.org/1999/xlink" width="100" height="100"  xml:space="preserve" id="brush">
    <!-- Generated by PaintCode - http://www.paintcodeapp.com -->
    <path id="brush-bezier" stroke="none" fill="rgb(255, 255, 255)" d="M 93.33,11.88 C 89.98,8.53 86.73,10.72 83.33,14.07 L 30.76,62.34 C 33.94,63.01 37.49,66.27 40.26,69.34 L 40.23,69.3 C 41.57,70.79 42.34,72.7 42.41,74.7 L 42.59,74.72 91.14,21.84 C 94.49,18.48 96.68,15.24 93.33,11.88 Z M 93.33,11.88" />
    <path id="brush-bezier2" stroke="none" fill="rgb(255, 255, 255)" d="M 26.85,65.11 C 20.33,64.72 18.92,71.43 17.71,76.22 16.5,81.01 6.81,85.37 5,85.37 5,85.37 12.22,90.27 23.49,89.75 L 23.39,89.76 C 28.05,89.43 32.48,87.64 36.06,84.64 L 36.34,84.4 C 39.91,81.4 40.38,76.06 37.38,72.49 37.31,72.41 37.25,72.34 37.18,72.26 34.19,68.89 30.24,65.32 26.85,65.11 Z M 26.85,65.11" />
</svg>
