<?xml version="1.0"?>
<svg version="1.1" xmlns="http://www.w3.org/2000/svg" xmlns:xlink="http://www.w3.org/1999/xlink" width="100" height="100">
    <desc iVinci="yes" version="4.4" gridStep="20" showGrid="no" snapToGrid="no" codePlatform="0"/>
    <g id="Layer1">
        <g id="Shape1">
            <desc type="0" basicInfo-basicType="0" basicInfo-roundedRectRadius="12" basicInfo-polygonSides="6" basicInfo-starPoints="5" bounding="rect(-30.05,-30.05,60.1,60.1)" text="" font-familyName="" font-pixelSize="20" font-bold="0" font-underline="0" font-alignment="1" strokeStyle="0" markerStart="0" markerEnd="0" shadowEnabled="0" shadowOffsetX="0" shadowOffsetY="2" shadowBlur="4" shadowOpacity="160" blurEnabled="0" blurRadius="4" transform="matrix(1,0,0,1,38.05,65.05)" pers-center="0,0" pers-size="0,0" pers-start="0,0" pers-end="0,0" locked="0" mesh="" flag=""/>
            <path id="shapePath1" d="M60.8,35 L15.2,35 C11.2,35 8,38.2 8,42.2 L8,87.9 C8,91.8 11.2,95.1 15.2,95.1 L60.9,95.1 C64.8,95.1 68.1,91.9 68.1,87.9 L68.1,42.2 C68,38.2 64.8,35 60.8,35 M62,87.8 C62,88.4 61.5,88.9 60.9,88.9 L15.2,88.9 C14.6,88.9 14.1,88.4 14.1,87.8 L14.1,42.2 C14.1,41.6 14.6,41.1 15.2,41.1 L60.9,41.1 C61.5,41.1 62,41.6 62,42.2 L62,87.8 " style="stroke:#ffffff;stroke-opacity:1;stroke-width:3;stroke-linejoin:miter;stroke-miterlimit:2;stroke-linecap:butt;fill-rule:evenodd;fill:#ffffff;fill-opacity:1;"/>
        </g>
        <g id="Shape2">
            <desc type="0" basicInfo-basicType="0" basicInfo-roundedRectRadius="12" basicInfo-polygonSides="6" basicInfo-starPoints="5" bounding="rect(-30,-30,60,60)" text="" font-familyName="" font-pixelSize="20" font-bold="0" font-underline="0" font-alignment="1" strokeStyle="0" markerStart="0" markerEnd="0" shadowEnabled="0" shadowOffsetX="0" shadowOffsetY="2" shadowBlur="4" shadowOpacity="160" blurEnabled="0" blurRadius="4" transform="matrix(1,0,0,1,62,35)" pers-center="0,0" pers-size="0,0" pers-start="0,0" pers-end="0,0" locked="0" mesh="" flag=""/>
            <path id="shapePath2" d="M84.8,5 L39.2,5 C35.2,5 32,8.2 32,12.2 L32,29 L38,29 L38,12.2 C38,11.6 38.5,11.1 39.1,11.1 L84.8,11.1 C85.4,11.1 85.9,11.6 85.9,12.2 L85.9,57.9 C85.9,58.5 85.4,59 84.8,59 L74,59 L74,65 L84.8,65 C88.7,65 92,61.8 92,57.8 L92,12.2 C92,8.2 88.8,5 84.8,5 Z" style="stroke:#ffffff;stroke-opacity:1;stroke-width:3;stroke-linejoin:miter;stroke-miterlimit:2;stroke-linecap:butt;fill-rule:evenodd;fill:#ffffff;fill-opacity:1;"/>
        </g>
    </g>
</svg>
