<?xml version="1.0"?>
<svg version="1.1" xmlns="http://www.w3.org/2000/svg" xmlns:xlink="http://www.w3.org/1999/xlink" width="100" height="100">
    <desc iVinci="yes" version="4.4" gridStep="20" showGrid="no" snapToGrid="no" codePlatform="0"/>
    <g id="Layer1">
        <g id="Shape1">
            <desc type="0" basicInfo-basicType="0" basicInfo-roundedRectRadius="12" basicInfo-polygonSides="6" basicInfo-starPoints="5" bounding="rect(-9.7002,-12.4595,19.3999,24.9189)" text="" font-familyName="" font-pixelSize="20" font-bold="0" font-underline="0" font-alignment="1" strokeStyle="0" markerStart="0" markerEnd="0" shadowEnabled="0" shadowOffsetX="0" shadowOffsetY="2" shadowBlur="4" shadowOpacity="160" blurEnabled="0" blurRadius="4" transform="matrix(1,0,0,1,5263.4,2406.56)" pers-center="0,0" pers-size="0,0" pers-start="0,0" pers-end="0,0" locked="0" mesh="" flag=""/>
            <path id="shapePath1" d="M5273.1,2400.1 L5273.1,2398.1 C5273.1,2395.3 5268.1,2394.1 5263.4,2394.1 C5258.7,2394.1 5253.7,2395.4 5253.7,2398.1 L5253.7,2400.1 C5253.7,2401.9 5254.4,2403.7 5255.7,2405 L5260.7,2409.9 C5261,2410.2 5261.1,2410.5 5261.1,2410.9 L5261.1,2417.3 C5261.1,2417.7 5261.3,2418 5261.7,2418.1 L5264.6,2419 C5265.1,2419.1 5265.6,2418.8 5265.6,2418.2 L5265.6,2411 C5265.6,2410.6 5265.8,2410.3 5266,2410 L5271.1,2405 C5272.4,2403.7 5273.1,2401.9 5273.1,2400.1 M5263.4,2400 C5258.6,2400 5256,2398.7 5255.9,2398.2 C5256,2397.7 5258.6,2396.4 5263.4,2396.4 C5268.2,2396.4 5270.7,2397.7 5270.9,2398.2 C5270.7,2398.7 5268.2,2400 5263.4,2400 " style="stroke:none;fill-rule:evenodd;fill:#000000;fill-opacity:1;"/>
        </g>
        <g id="Shape2">
            <desc type="0" basicInfo-basicType="0" basicInfo-roundedRectRadius="12" basicInfo-polygonSides="6" basicInfo-starPoints="5" bounding="rect(-3.1499,-1,6.30029,2)" text="" font-familyName="" font-pixelSize="20" font-bold="0" font-underline="0" font-alignment="1" strokeStyle="0" markerStart="0" markerEnd="0" shadowEnabled="0" shadowOffsetX="0" shadowOffsetY="2" shadowBlur="4" shadowOpacity="160" blurEnabled="0" blurRadius="4" transform="matrix(1,0,0,1,5270.55,2411.3)" pers-center="0,0" pers-size="0,0" pers-start="0,0" pers-end="0,0" locked="0" mesh="" flag=""/>
            <path id="shapePath2" d="M5268.4,2410.3 C5267.8,2410.3 5267.4,2410.7 5267.4,2411.3 C5267.4,2411.9 5267.8,2412.3 5268.4,2412.3 L5272.7,2412.3 C5273.3,2412.3 5273.7,2411.9 5273.7,2411.3 C5273.7,2410.7 5273.3,2410.3 5272.7,2410.3 L5268.4,2410.3 Z" style="stroke:none;fill-rule:evenodd;fill:#000000;fill-opacity:1;"/>
        </g>
        <g id="Shape3">
            <desc type="0" basicInfo-basicType="0" basicInfo-roundedRectRadius="12" basicInfo-polygonSides="6" basicInfo-starPoints="5" bounding="rect(-3.1499,-1,6.30029,2)" text="" font-familyName="" font-pixelSize="20" font-bold="0" font-underline="0" font-alignment="1" strokeStyle="0" markerStart="0" markerEnd="0" shadowEnabled="0" shadowOffsetX="0" shadowOffsetY="2" shadowBlur="4" shadowOpacity="160" blurEnabled="0" blurRadius="4" transform="matrix(1,0,0,1,5270.55,2414.7)" pers-center="0,0" pers-size="0,0" pers-start="0,0" pers-end="0,0" locked="0" mesh="" flag=""/>
            <path id="shapePath3" d="M5272.7,2413.7 L5268.4,2413.7 C5267.8,2413.7 5267.4,2414.1 5267.4,2414.7 C5267.4,2415.3 5267.8,2415.7 5268.4,2415.7 L5272.7,2415.7 C5273.3,2415.7 5273.7,2415.3 5273.7,2414.7 C5273.7,2414.1 5273.3,2413.7 5272.7,2413.7 Z" style="stroke:none;fill-rule:evenodd;fill:#000000;fill-opacity:1;"/>
        </g>
        <g id="Shape4">
            <desc type="0" basicInfo-basicType="0" basicInfo-roundedRectRadius="12" basicInfo-polygonSides="6" basicInfo-starPoints="5" bounding="rect(-3.1499,-1,6.30029,2)" text="" font-familyName="" font-pixelSize="20" font-bold="0" font-underline="0" font-alignment="1" strokeStyle="0" markerStart="0" markerEnd="0" shadowEnabled="0" shadowOffsetX="0" shadowOffsetY="2" shadowBlur="4" shadowOpacity="160" blurEnabled="0" blurRadius="4" transform="matrix(1,0,0,1,5270.55,2418)" pers-center="0,0" pers-size="0,0" pers-start="0,0" pers-end="0,0" locked="0" mesh="" flag=""/>
            <path id="shapePath4" d="M5272.7,2417 L5268.4,2417 C5267.8,2417 5267.4,2417.4 5267.4,2418 C5267.4,2418.6 5267.8,2419 5268.4,2419 L5272.7,2419 C5273.3,2419 5273.7,2418.6 5273.7,2418 C5273.7,2417.5 5273.3,2417 5272.7,2417 Z" style="stroke:none;fill-rule:evenodd;fill:#000000;fill-opacity:1;"/>
        </g>
        <g id="Shape5">
            <desc type="0" basicInfo-basicType="0" basicInfo-roundedRectRadius="12" basicInfo-polygonSides="6" basicInfo-starPoints="5" bounding="rect(-33.9,-33.85,67.8,67.7)" text="" font-familyName="" font-pixelSize="20" font-bold="0" font-underline="0" font-alignment="1" strokeStyle="0" markerStart="0" markerEnd="0" shadowEnabled="0" shadowOffsetX="0" shadowOffsetY="2" shadowBlur="4" shadowOpacity="160" blurEnabled="0" blurRadius="4" transform="matrix(1,0,0,1,36.4,36.45)" pers-center="0,0" pers-size="0,0" pers-start="0,0" pers-end="0,0" locked="0" mesh="" flag=""/>
            <path id="shapePath5" d="M12.2,60.6 L12.2,12.2 L60.6,12.2 L60.6,30.9 L70.3,34.1 L70.3,7.4 C70.3,4.7 68.2,2.6 65.5,2.6 L7.3,2.6 C4.7,2.6 2.5,4.7 2.5,7.4 L2.5,65.5 C2.5,68.2 4.7,70.3 7.3,70.3 L34,70.3 L30.8,60.6 L12.2,60.6 Z" style="stroke:none;fill-rule:evenodd;fill:#ffffff;fill-opacity:1;"/>
        </g>
        <g id="Shape6">
            <desc type="0" basicInfo-basicType="0" basicInfo-roundedRectRadius="12" basicInfo-polygonSides="6" basicInfo-starPoints="5" bounding="rect(-31.6604,-31.7479,63.3209,63.4959)" text="" font-familyName="" font-pixelSize="20" font-bold="0" font-underline="0" font-alignment="1" strokeStyle="0" markerStart="0" markerEnd="0" shadowEnabled="0" shadowOffsetX="0" shadowOffsetY="2" shadowBlur="4" shadowOpacity="160" blurEnabled="0" blurRadius="4" transform="matrix(1,0,0,1,65.8145,65.902)" pers-center="0,0" pers-size="0,0" pers-start="0,0" pers-end="0,0" locked="0" mesh="" flag=""/>
            <path id="shapePath6" d="M95.3,84.6 L77.4,66.7 L89.5,58.2 C92.6,56.1 91.9,51.4 88.3,50.2 L40.1,34.4 C36.6,33.2 33.2,36.6 34.4,40.1 L50.2,88.4 C51.4,91.9 56.1,92.6 58.2,89.6 L66.7,77.5 L84.6,95.4 C87.6,98.4 92.4,98.4 95.3,95.4 C98.2,92.3 98.2,87.5 95.3,84.6 Z" style="stroke:none;fill-rule:evenodd;fill:#ffffff;fill-opacity:1;"/>
        </g>
    </g>
</svg>
