<?xml version="1.0" encoding="UTF-8"?>
<svg width="944px" height="945px" viewBox="0 0 944 945" version="1.1" xmlns="http://www.w3.org/2000/svg" xmlns:xlink="http://www.w3.org/1999/xlink">
    <!-- Generator: Sketch 50.2 (55047) - http://www.bohemiancoding.com/sketch -->
    <title>edit</title>
    <desc>Created with Sketch.</desc>
    <defs></defs>
    <g id="Page-1" stroke="none" stroke-width="1" fill="none" fill-rule="evenodd">
        <g id="Mobile" transform="translate(10030.500000, 3316.500000) scale(-1, 1) translate(-10030.500000, -3316.500000) translate(-745.000000, -2419.000000)" fill="#FFFFFF" fill-rule="nonzero">
            <g id="edit" transform="translate(20333.500000, 2891.500000) scale(-1, 1) translate(-20333.500000, -2891.500000) translate(19861.000000, 2419.000000)">
                <path d="M62.14,944.66 C60.22,942.74 56.37,942.74 54.45,942.74 C46.75,940.82 8.28,902.34 2.51,894.64 C0.58,890.79 0.58,883.1 0.58,877.33 C0.58,867.71 0.58,865.78 31.36,817.68 C48.68,790.75 64.07,765.74 67.92,761.89 C69.84,758.04 79.46,754.19 102.54,742.65 L133.33,731.11 L260.3,602.2 L387.27,475.22 L383.42,469.45 C373.8,459.83 371.88,450.21 375.72,442.51 C377.65,438.66 385.34,429.04 394.96,419.42 L412.28,402.11 L408.43,396.34 C396.88,386.72 394.96,377.1 394.96,359.78 C394.96,346.31 394.96,342.47 398.81,334.77 C410.35,313.61 419.97,307.83 460.37,305.91 C493.07,303.99 500.77,302.06 504.62,300.14 C506.54,296.29 510.39,288.59 520.01,263.58 C535.4,215.48 543.09,202.02 560.41,175.08 C598.88,119.29 693.15,50.02 777.8,15.39 C814.35,1.92 827.81,0 852.82,0 C872.06,0 873.99,0 881.68,3.85 C889.38,9.62 935.55,55.79 941.32,65.41 C945.17,73.11 945.17,105.82 939.39,125.06 C920.16,194.32 873.99,275.13 818.2,336.69 C783.57,373.25 766.25,384.79 689.3,413.65 C675.83,419.42 660.44,427.12 654.67,429.04 C639.28,436.74 637.36,440.59 637.36,475.22 C635.44,509.85 631.59,521.39 621.97,532.94 C598.88,554.1 568.1,556.02 546.94,536.79 L539.25,531.01 L523.86,548.33 C498.85,571.42 493.07,575.26 475.76,561.8 L468.07,556.02 L341.09,683.01 L212.2,811.91 L198.73,842.69 L187.19,873.48 L131.4,908.11 C81.38,938.89 67.92,946.59 62.14,944.66 M112.16,871.55 C133.33,858.09 150.64,844.62 152.56,844.62 C152.56,842.69 160.26,829.23 167.95,811.91 L179.5,784.98 L308.39,654.15 L437.28,525.24 L427.67,515.62 L418.05,506 L287.23,634.91 L158.33,765.74 L129.48,777.28 C114.09,783.05 100.62,790.75 98.7,792.67 C96.77,794.6 83.31,813.84 69.84,836.92 L42.91,877.33 L54.45,888.87 C64.07,898.49 65.99,900.41 67.92,898.49 C71.76,896.57 91,885.02 112.16,871.55 M477.68,465.6 L443.06,432.89 L433.44,440.59 L423.82,450.21 L458.45,484.84 L491.15,519.47 L500.77,509.85 L510.39,500.23 L477.68,465.6 M587.34,506 C593.11,502.15 593.11,500.23 595.04,471.37 C598.88,407.88 604.65,402.11 681.61,371.32 C750.86,344.39 766.25,334.77 810.5,278.97 C850.9,228.95 893.22,148.14 902.84,103.89 L904.77,86.58 L881.68,61.57 L858.6,38.48 L848.98,40.4 C810.5,44.25 747.02,73.11 695.07,107.74 C668.14,126.98 650.83,138.53 627.74,161.61 C596.96,190.47 579.65,215.48 560.41,273.2 C546.94,313.61 541.17,323.23 531.55,330.92 C520.01,340.54 506.54,344.39 460.37,348.24 C441.13,348.24 439.21,348.24 435.36,354.01 C433.44,355.93 433.44,359.78 435.36,361.7 C435.36,367.48 577.72,509.85 581.57,509.85 C581.57,509.85 585.42,507.93 587.34,506" id="shapePath1"></path>
            </g>
        </g>
    </g>
</svg>