<?xml version="1.0" encoding="UTF-8"?>
<svg width="944px" height="944px" viewBox="0 0 944 944" version="1.1" xmlns="http://www.w3.org/2000/svg" xmlns:xlink="http://www.w3.org/1999/xlink">
    <!-- Generator: Sketch 50.2 (55047) - http://www.bohemiancoding.com/sketch -->
    <title>export</title>
    <desc>Created with Sketch.</desc>
    <defs></defs>
    <g id="Page-1" stroke="none" stroke-width="1" fill="none" fill-rule="evenodd">
        <g id="Mobile" transform="translate(-958.500000, -3076.500000) scale(-1, 1) translate(958.500000, 3076.500000) translate(-11734.000000, -8812.000000)" fill="#FFFFFF" fill-rule="nonzero">
            <g id="export" transform="translate(9345.000000, 9284.000000) scale(-1, 1) translate(-9345.000000, -9284.000000) translate(8873.000000, 8812.000000)">
                <g id="Shape1" transform="translate(232.000000, 0.000000)">
                    <path d="M55.7,231.2 L192.8,94 L192.8,713.2 C192.8,731 207.2,745.4 225,745.4 C242.8,745.4 257.2,731 257.2,713.2 L257.2,94 L394.3,231.2 C400.6,237.5 408.8,240.6 417,240.6 C425.2,240.6 433.5,237.5 439.7,231.2 C452.3,218.6 452.3,198.3 439.7,185.7 L275,20.9 C261.3,7.2 243.3,0.3 225.3,0.2 C225.2,0.2 225.1,0.1 224.9,0.1 C224.8,0.1 224.7,0.2 224.5,0.2 C206.5,0.3 188.5,7.2 174.8,20.9 L10.2,185.7 C-2.4,198.3 -2.4,218.6 10.2,231.2 C22.7,243.8 43.1,243.8 55.7,231.2 Z" id="shapePath1"></path>
                </g>
                <g id="Shape2" transform="translate(0.000000, 308.000000)">
                    <path d="M802.2,1 L650.2,1 C632.4,1 618,15.4 618,33.2 C618,51 632.4,65.4 650.2,65.4 L802.2,65.4 C844.8,65.4 879.5,100.1 879.5,142.7 L879.5,494.3 C879.5,536.9 844.8,571.6 802.2,571.6 L141.8,571.6 C99.2,571.6 64.5,536.9 64.5,494.3 L64.5,142.6 C64.5,100 99.2,65.3 141.8,65.3 L298.1,65.3 C315.9,65.3 330.3,50.9 330.3,33.1 C330.3,15.3 315.9,0.9 298.1,0.9 L141.8,0.9 C63.7,0.9 0.2,64.4 0.2,142.5 L0.2,494.1 C0.2,572.2 63.7,635.7 141.8,635.7 L802.2,635.7 C880.3,635.7 943.8,572.2 943.8,494.1 L943.8,142.6 C943.8,64.5 880.3,1 802.2,1 Z" id="shapePath2"></path>
                </g>
            </g>
        </g>
    </g>
</svg>