<?xml version="1.0" encoding="UTF-8" standalone="no"?>
<!DOCTYPE svg PUBLIC "-//W3C//DTD SVG 1.1//EN" "http://www.w3.org/Graphics/SVG/1.1/DTD/svg11.dtd">
<svg width="100%" height="100%" viewBox="0 0 512 512" version="1.1" xmlns="http://www.w3.org/2000/svg" xmlns:xlink="http://www.w3.org/1999/xlink" xml:space="preserve" xmlns:serif="http://www.serif.com/" style="fill-rule:evenodd;clip-rule:evenodd;stroke-linecap:round;stroke-linejoin:round;stroke-miterlimit:1.5;">
    <path d="M294.17,372.159C297.982,368.795 300.156,363.949 300.133,358.865C300.032,335.612 299.737,268.214 299.635,244.865C299.612,239.682 301.588,234.689 305.152,230.925C324.302,210.702 388.481,142.926 426.323,102.963C431.244,97.766 432.602,90.142 429.778,83.566C426.955,76.991 420.491,72.725 413.335,72.714C335.994,72.601 171.074,72.36 96.131,72.251C89.666,72.241 83.83,76.123 81.339,82.089C78.848,88.055 80.191,94.934 84.744,99.524C122.143,137.241 187.024,202.67 205.158,220.957C208.254,224.08 210.003,228.292 210.028,232.689C210.202,262.418 210.891,380.683 211.16,426.791C211.18,430.097 213.129,433.086 216.146,434.437C219.163,435.787 222.691,435.25 225.169,433.063C244.888,415.658 280.142,384.541 294.17,372.159Z" style="fill:none;stroke:white;stroke-width:40px;"/>
</svg>
