<?xml version="1.0" encoding="UTF-8" standalone="no"?>
<!DOCTYPE svg PUBLIC "-//W3C//DTD SVG 1.1//EN" "http://www.w3.org/Graphics/SVG/1.1/DTD/svg11.dtd">
<svg width="100%" height="100%" viewBox="0 0 100 100" version="1.1" xmlns="http://www.w3.org/2000/svg" xmlns:xlink="http://www.w3.org/1999/xlink" xml:space="preserve" xmlns:serif="http://www.serif.com/" style="fill-rule:evenodd;clip-rule:evenodd;stroke-linecap:round;stroke-miterlimit:2;">
    <g transform="matrix(0.951925,0,0,0.951925,1.95093,2.05946)">
        <g id="Layer1">
            <g id="Shape1">
                <path id="shapePath1" d="M9.721,9.721C22.683,-3.24 43.694,-3.24 56.655,9.721C67.843,20.909 69.617,38.509 60.748,51.607L98.268,89.127C103.862,94.585 94.585,103.862 89.127,98.268L51.607,60.748C38.509,69.617 20.909,67.843 9.721,56.655C-3.24,43.694 -3.24,22.683 9.721,9.721M18.862,18.862C11.086,26.776 11.086,39.601 18.862,47.514C26.776,55.427 39.601,55.427 47.514,47.514C55.427,39.601 55.427,26.776 47.514,18.862C39.601,11.086 26.776,11.086 18.862,18.862" style="fill:white;stroke:white;stroke-width:1px;"/>
            </g>
        </g>
    </g>
</svg>
