<?xml version="1.0" encoding="UTF-8"?>
<svg width="878px" height="722px" viewBox="0 0 878 722" version="1.1" xmlns="http://www.w3.org/2000/svg" xmlns:xlink="http://www.w3.org/1999/xlink">
    <!-- Generator: Sketch 50.2 (55047) - http://www.bohemiancoding.com/sketch -->
    <title>font_size</title>
    <desc>Created with Sketch.</desc>
    <defs></defs>
    <g id="Page-1" stroke="none" stroke-width="1" fill="none" fill-rule="evenodd">
        <g id="Mobile" transform="translate(1893.500000, -3008.500000) scale(-1, 1) translate(-1893.500000, 3008.500000) translate(-8882.000000, -8744.000000)" fill="#FFFFFF" fill-rule="nonzero">
            <g id="font_size" transform="translate(12230.000000, 9105.000000) scale(-1, 1) translate(-12230.000000, -9105.000000) translate(11791.000000, 8744.000000)">
                <g id="Shape1">
                    <path d="M376.5,4.7 C375.4,2.1 372.9,0.3 370,0.3 L295.5,0.3 C292.6,0.3 290.1,2 289,4.7 L1,712 C0.1,714.2 0.4,716.6 1.7,718.6 C3,720.5 5.2,721.7 7.5,721.7 L100,721.7 C102.9,721.7 105.5,719.9 106.5,717.3 L189.2,508.7 L475.4,508.7 L558.1,717.3 C559.2,720 561.7,721.7 564.6,721.7 L658.2,721.7 C660.5,721.7 662.7,720.5 664,718.6 C665.3,716.7 665.5,714.2 664.7,712 L376.5,4.7 M439.2,416.9 L225.5,416.9 L248.1,359.9 C275.1,292.1 303.6,216.7 332.9,135.4 C361,215.9 389,291.4 416.2,360 L439.2,416.9" id="shapePath1"></path>
                </g>
                <g id="Shape2" transform="translate(553.000000, 86.000000)">
                    <path d="M324,341.2 L186.8,4.4 C185.7,1.8 183.2,0 180.3,0 L144.8,0 C141.9,0 139.4,1.7 138.3,4.4 L1.2,341.2 C0.3,343.4 0.6,345.8 1.9,347.8 C3.2,349.7 5.4,350.9 7.7,350.9 L51.8,350.9 C54.7,350.9 57.3,349.1 58.3,346.5 L96.8,249.5 L228,249.5 L266.5,346.5 C267.6,349.2 270.1,350.9 273,350.9 L317.5,350.9 C319.8,350.9 322,349.7 323.3,347.8 C324.7,345.8 324.9,343.4 324,341.2 M116.9,198.4 L125.7,176.3 C137.5,146.6 149.9,113.9 162.7,78.9 C175,113.7 187.2,146.4 199,176.3 L207.9,198.4 L116.9,198.4" id="shapePath2"></path>
                </g>
            </g>
        </g>
    </g>
</svg>