<?xml version="1.0" encoding="UTF-8"?>
<svg width="944px" height="942px" viewBox="0 0 944 942" version="1.1" xmlns="http://www.w3.org/2000/svg" xmlns:xlink="http://www.w3.org/1999/xlink">
    <!-- Generator: Sketch 50.2 (55047) - http://www.bohemiancoding.com/sketch -->
    <title>graphic</title>
    <desc>Created with Sketch.</desc>
    <defs></defs>
    <g id="Page-1" stroke="none" stroke-width="1" fill="none" fill-rule="evenodd">
        <g id="Mobile" transform="translate(2398.500000, 1384.500000) scale(-1, 1) translate(-2398.500000, -1384.500000) translate(-8377.000000, -4351.000000)" fill="#FFFFFF" fill-rule="nonzero">
            <g id="graphic" transform="translate(12702.000000, 4822.000000) scale(-1, 1) translate(-12702.000000, -4822.000000) translate(12230.000000, 4351.000000)">
                <g id="Shape1">
                    <path d="M802.2,0.4 L141.8,0.4 C63.7,0.4 0.2,63.9 0.2,142 L0.2,725.2 C0.2,803.3 63.7,866.8 141.8,866.8 L294.1,866.8 C279.1,872.1 268.4,886.3 268.4,903 C268.4,924.3 285.7,941.6 307,941.6 L637.1,941.6 C658.4,941.6 675.7,924.3 675.7,903 C675.7,886.2 664.9,872.1 650,866.8 L802.3,866.8 C880.4,866.8 943.9,803.3 943.9,725.2 L943.9,142 C943.8,63.9 880.3,0.4 802.2,0.4 M879.5,725.2 C879.5,767.8 844.8,802.5 802.2,802.5 L141.8,802.5 C99.2,802.5 64.5,767.8 64.5,725.2 L64.5,142 C64.5,99.4 99.2,64.8 141.8,64.8 L802.2,64.8 C844.8,64.8 879.5,99.5 879.5,142 L879.5,725.2" id="shapePath1"></path>
                </g>
                <g id="Shape2" transform="translate(124.000000, 125.000000)">
                    <path d="M458.3,0.5 C338.2,0.5 238.9,90.1 223.1,205.9 L85.3,205.9 C38.3,205.9 0.1,244.1 0.1,291.1 L0.1,511.4 C0.1,558.4 38.3,596.6 85.3,596.6 L405.3,596.6 C452.3,596.6 490.5,558.4 490.5,511.4 L490.5,473.3 C606.3,457.5 696,358.2 696,238.1 C695.9,107.1 589.3,0.5 458.3,0.5 M426.1,408.3 C356.3,395.1 301.3,340.1 288.1,270.3 L405.3,270.3 C416.8,270.3 426.1,279.6 426.1,291.2 L426.1,408.3 M405.3,532.3 L85.3,532.3 C73.8,532.3 64.4,523 64.4,511.5 L64.4,291.2 C64.4,279.7 73.8,270.3 85.3,270.3 L223.2,270.3 C237.5,375.6 320.9,459 426.2,473.3 L426.2,511.4 C426.1,522.9 416.8,532.3 405.3,532.3 M490.5,408.3 L490.5,291.2 C490.5,244.2 452.3,206 405.3,206 L288.1,206 C303.2,125.8 373.7,64.9 458.3,64.9 C553.8,64.9 631.6,142.6 631.6,238.2 C631.6,322.7 570.7,393.2 490.5,408.3" id="shapePath2"></path>
                </g>
            </g>
        </g>
    </g>
</svg>