<?xml version="1.0" encoding="UTF-8" standalone="no"?>
<!DOCTYPE svg PUBLIC "-//W3C//DTD SVG 1.1//EN" "http://www.w3.org/Graphics/SVG/1.1/DTD/svg11.dtd">
<svg width="100%" height="100%" viewBox="0 0 100 100" version="1.1" xmlns="http://www.w3.org/2000/svg" xmlns:xlink="http://www.w3.org/1999/xlink" xml:space="preserve" xmlns:serif="http://www.serif.com/" style="fill-rule:evenodd;clip-rule:evenodd;stroke-linecap:round;stroke-linejoin:round;stroke-miterlimit:1.5;">
    <g id="Layer1">
        <g transform="matrix(1,0,0,1,0,1)">
            <path d="M28.296,41.035L13.898,54.98L13.637,54.718L51.821,19.076L88.434,54.802L88.173,55.063L74.118,41.047L74.118,75.485C74.118,78.662 71.539,81.241 68.363,81.241L33.894,81.241C30.718,81.241 28.139,78.662 28.139,75.485L28.296,41.035Z" style="fill:white;fill-opacity:0;stroke:white;stroke-width:4.5px;"/>
        </g>
        <g transform="matrix(1,0,0,1.5013,0.387964,-33.1291)">
            <path d="M58.26,63.264C58.26,62.667 57.531,62.181 56.634,62.181L45.303,62.181C44.405,62.181 43.677,62.667 43.677,63.264L43.677,75.681C43.677,76.279 44.405,76.764 45.303,76.764L56.634,76.764C57.531,76.764 58.26,76.279 58.26,75.681L58.26,63.264Z" style="fill:white;fill-opacity:0;stroke:white;stroke-width:3.53px;"/>
        </g>
    </g>
</svg>
