<?xml version="1.0" encoding="UTF-8"?>
<svg width="944px" height="944px" viewBox="0 0 944 944" version="1.1" xmlns="http://www.w3.org/2000/svg" xmlns:xlink="http://www.w3.org/1999/xlink">
    <!-- Generator: Sketch 50.2 (55047) - http://www.bohemiancoding.com/sketch -->
    <title>image</title>
    <desc>Created with Sketch.</desc>
    <defs></defs>
    <g id="Page-1" stroke="none" stroke-width="1" fill="none" fill-rule="evenodd">
        <g id="Mobile" transform="translate(1700.500000, 5402.500000) scale(-1, 1) translate(-1700.500000, -5402.500000) translate(-9075.000000, -333.000000)" fill="#FFFFFF" fill-rule="nonzero">
            <g id="image" transform="translate(12004.000000, 805.000000) scale(-1, 1) translate(-12004.000000, -805.000000) translate(11532.000000, 333.000000)">
                <g id="Shape1">
                    <path d="M802.2,0.2 L141.8,0.2 C63.7,0.2 0.2,63.7 0.2,141.8 L0.2,802.2 C0.2,880.3 63.7,943.8 141.8,943.8 L802.2,943.8 C880.3,943.8 943.8,880.3 943.8,802.2 L943.8,141.8 C943.8,63.7 880.3,0.2 802.2,0.2 M141.8,64.5 L802.2,64.5 C844.8,64.5 879.5,99.2 879.5,141.8 L879.5,586 L782,493.7 C772.2,484.4 757.6,482.2 745.5,488.3 L483,619.3 L322.8,379 C313.5,365.1 295.1,360.6 280.5,368.7 L64.5,488.2 L64.5,141.8 C64.5,99.2 99.2,64.5 141.8,64.5 M64.5,802.2 L64.5,561.7 L285.7,439.3 L579.1,879.5 L141.8,879.5 C99.2,879.5 64.5,844.8 64.5,802.2 M802.2,879.5 L656.4,879.5 L519,673.3 L754.1,555.9 L879.5,674.6 L879.5,802.2 C879.5,844.8 844.8,879.5 802.2,879.5" id="shapePath1"></path>
                </g>
                <g id="Shape2" transform="translate(416.000000, 124.000000)">
                    <path d="M153,305 C236.9,305 305.2,236.7 305.2,152.8 C305.2,68.9 236.9,0.6 153,0.6 C69.1,0.6 0.8,68.9 0.8,152.8 C0.8,236.7 69.1,305 153,305 M153,64.9 C201.5,64.9 240.9,104.3 240.9,152.8 C240.9,201.3 201.5,240.7 153,240.7 C104.6,240.7 65.1,201.3 65.1,152.8 C65.1,104.3 104.6,64.9 153,64.9" id="shapePath2"></path>
                </g>
            </g>
        </g>
    </g>
</svg>