<?xml version="1.0" encoding="UTF-8"?>
<svg width="598px" height="944px" viewBox="0 0 598 944" version="1.1" xmlns="http://www.w3.org/2000/svg" xmlns:xlink="http://www.w3.org/1999/xlink">
    <!-- Generator: Sketch 50.2 (55047) - http://www.bohemiancoding.com/sketch -->
    <title>locate</title>
    <desc>Created with Sketch.</desc>
    <defs></defs>
    <g id="Page-1" stroke="none" stroke-width="1" fill="none" fill-rule="evenodd">
        <g id="Mobile" transform="translate(-7745.500000, -125.500000) scale(-1, 1) translate(7745.500000, 125.500000) translate(-18521.000000, -5861.000000)" fill="#FFFFFF" fill-rule="nonzero">
            <g id="locate" transform="translate(2731.000000, 6333.000000) scale(-1, 1) translate(-2731.000000, -6333.000000) translate(2432.000000, 5861.000000)">
                <g id="Shape1">
                    <path d="M299,0.1 C134.6,0.1 0.9,133.8 0.9,298.2 C0.9,448.2 240.8,877.4 268.1,925.9 C274.4,937.1 286.2,944 299,944 C311.8,944 323.7,937.1 329.9,925.9 C357.2,877.5 597.1,448.3 597.1,298.2 C597.1,133.8 463.4,0.1 299,0.1 M299,834.9 C215.4,680.7 71.9,395.9 71.9,298.2 C71.9,173 173.8,71.1 299,71.1 C424.2,71.1 526.1,173 526.1,298.2 C526.1,395.8 382.6,680.7 299,834.9" id="shapePath1"></path>
                </g>
                <g id="Shape2" transform="translate(178.000000, 177.000000)">
                    <path d="M121,0.8 C54.6,0.8 0.6,54.8 0.6,121.2 C0.6,187.6 54.6,241.6 121,241.6 C187.4,241.6 241.4,187.6 241.4,121.2 C241.4,54.8 187.4,0.8 121,0.8 M121,177.3 C90.1,177.3 64.9,152.1 64.9,121.2 C64.9,90.3 90.1,65.1 121,65.1 C151.9,65.1 177.1,90.3 177.1,121.2 C177.1,152.1 151.9,177.3 121,177.3" id="shapePath2"></path>
                </g>
            </g>
        </g>
    </g>
</svg>