<?xml version="1.0"?>
<svg version="1.1" xmlns="http://www.w3.org/2000/svg" xmlns:xlink="http://www.w3.org/1999/xlink" width="100" height="100">
    <desc iVinci="yes" version="4.4" gridStep="20" showGrid="no" snapToGrid="no" codePlatform="0"/>
    <g id="Layer1">
        <g id="Shape1">
            <desc type="0" basicInfo-basicType="0" basicInfo-roundedRectRadius="12" basicInfo-polygonSides="6" basicInfo-starPoints="5" bounding="rect(-32.4537,-41.15,64.9073,82.3)" text="" font-familyName="" font-pixelSize="20" font-bold="0" font-underline="0" font-alignment="1" strokeStyle="0" markerStart="0" markerEnd="0" shadowEnabled="0" shadowOffsetX="0" shadowOffsetY="2" shadowBlur="4" shadowOpacity="160" blurEnabled="0" blurRadius="4" transform="matrix(1,0,0,1,49.5499,49.85)" pers-center="0,0" pers-size="0,0" pers-start="0,0" pers-end="0,0" locked="0" mesh="" flag=""/>
            <path id="shapePath1" d="M81.9,49.6 C81.9,40.6 81.5,40.2 72.6,39.9 C72.6,35.9 72.6,30.9 72.5,27.8 C72,16 64.7,8.9 53,8.7 C51,8.7 49,8.7 46.9,8.7 C33.9,8.8 26.3,16.7 26.5,29.6 C26.5,29.6 26.5,29.7 26.5,29.7 L26.5,40 C25.8,40 25.1,40 24.3,40 C18.5,40 17.2,41.4 17.2,47.2 C17.2,59.5 17.3,71.8 17.1,84.1 C17,88.8 18.9,91 23.6,91 C41,91 58.3,91 75.7,91 C80.1,91 82.1,89 82,84.5 C81.8,72.9 81.9,61.3 81.9,49.6 M53.1,67.5 L53.1,73.3 C53.1,75.3 51.5,76.8 49.6,76.8 C47.7,76.8 46,75.2 46,73.3 L46,67.5 C43.1,66.2 41,63.2 41,59.7 C41,55 44.8,51.2 49.5,51.2 C54.2,51.2 58,55 58,59.7 C58.1,63.2 56,66.2 53.1,67.5 M61.7,39.9 C53.6,39.9 45.6,40 37.5,40 L37.5,31.5 C37.6,30.9 37.6,30.3 37.6,29.8 C37.5,22.5 41.6,19.5 50.6,19.7 C58,19.8 61.7,23.3 61.7,30.3 C61.7,33.5 61.7,36.7 61.7,39.9 " style="stroke:none;fill-rule:nonzero;fill:#ffffff;fill-opacity:1;"/>
        </g>
    </g>
</svg>
