<?xml version="1.0" encoding="UTF-8"?>
<!DOCTYPE svg PUBLIC "-//W3C//DTD SVG 1.1//EN" "http://www.w3.org/Graphics/SVG/1.1/DTD/svg11.dtd">
<svg version="1.1" xmlns="http://www.w3.org/2000/svg" xmlns:xlink="http://www.w3.org/1999/xlink" width="100" height="100"  xml:space="preserve" id="navigation">
    <!-- Generated by PaintCode - http://www.paintcodeapp.com -->
    <path id="navigation-bezier" stroke="none" fill="rgb(255, 255, 255)" d="M 59.48,87.12 C 59.23,85.9 58.97,84.69 58.72,83.47 58.1,80.56 57.5,77.66 56.89,74.76 56.16,71.29 55.44,67.82 54.72,64.35 54.1,61.45 53.49,58.53 52.89,55.63 52.64,54.4 52.41,53.16 52.12,51.94 51.55,49.53 49.48,47.46 47.06,46.89 46.94,46.86 46.82,46.84 46.72,46.82 46.05,46.68 45.37,46.53 44.7,46.39 42.05,45.84 39.4,45.28 36.75,44.73 33.3,44.01 29.86,43.29 26.41,42.57 23.3,41.92 20.19,41.27 17.06,40.61 15.4,40.26 13.73,39.92 12.07,39.57 11.86,39.53 11.66,39.48 11.46,39.4 11.85,39.57 12.25,39.73 12.63,39.89 12.47,39.82 12.32,39.73 12.19,39.62 12.52,39.88 12.85,40.14 13.18,40.39 13.05,40.28 12.94,40.18 12.84,40.04 13.09,40.37 13.35,40.7 13.61,41.03 13.51,40.91 13.43,40.77 13.36,40.62 13.53,41.01 13.69,41.41 13.85,41.79 13.77,41.61 13.72,41.44 13.69,41.24 13.75,41.67 13.81,42.12 13.87,42.55 13.84,42.35 13.84,42.17 13.86,41.98 13.8,42.41 13.74,42.86 13.68,43.29 13.71,43.09 13.75,42.91 13.82,42.73 13.65,43.12 13.49,43.52 13.33,43.9 13.4,43.75 13.48,43.61 13.57,43.48 13.31,43.81 13.05,44.14 12.8,44.47 12.91,44.33 13.01,44.22 13.14,44.11 12.81,44.36 12.48,44.62 12.15,44.88 12.32,44.74 12.51,44.63 12.72,44.54 12.32,44.71 11.93,44.88 11.55,45.03 12.23,44.76 12.91,44.49 13.6,44.22 15.45,43.48 17.31,42.74 19.16,42 21.9,40.91 24.65,39.82 27.39,38.73 30.73,37.4 34.08,36.07 37.42,34.74 41.06,33.29 44.71,31.84 48.35,30.39 52.04,28.92 55.73,27.46 59.41,25.99 62.84,24.62 66.28,23.26 69.71,21.89 72.61,20.74 75.49,19.59 78.39,18.44 80.46,17.62 82.52,16.8 84.59,15.98 85.53,15.6 86.48,15.22 87.43,14.84 87.64,14.77 87.86,14.7 88.07,14.67 87.64,14.73 87.2,14.79 86.76,14.84 86.94,14.83 87.11,14.83 87.29,14.85 86.86,14.8 86.42,14.74 85.98,14.68 86.15,14.71 86.31,14.76 86.48,14.81 86.08,14.65 85.69,14.48 85.3,14.32 85.46,14.39 85.6,14.47 85.74,14.57 85.4,14.31 85.08,14.06 84.74,13.8 84.91,13.93 85.06,14.08 85.19,14.24 84.93,13.91 84.67,13.58 84.42,13.25 84.52,13.39 84.6,13.53 84.66,13.68 84.5,13.29 84.33,12.89 84.17,12.51 84.23,12.67 84.28,12.83 84.31,13 84.25,12.57 84.19,12.12 84.13,11.69 84.15,11.87 84.15,12.04 84.14,12.22 84.2,11.79 84.26,11.35 84.32,10.91 84.19,11.75 83.73,12.6 83.41,13.38 82.68,15.2 81.96,17.02 81.24,18.84 80.15,21.56 79.08,24.28 77.99,27 76.67,30.33 75.34,33.66 74.02,36.99 72.58,40.63 71.13,44.27 69.68,47.91 68.21,51.61 66.74,55.3 65.28,58.98 63.91,62.43 62.54,65.88 61.17,69.32 60.01,72.24 58.85,75.15 57.69,78.06 56.85,80.16 56.03,82.25 55.19,84.35 54.79,85.34 54.4,86.33 54.01,87.32 53.99,87.36 53.97,87.41 53.96,87.45 54.12,87.06 54.29,86.66 54.45,86.28 54.36,86.48 54.25,86.67 54.11,86.85 54.37,86.51 54.63,86.19 54.88,85.85 54.77,85.98 54.66,86.1 54.52,86.2 54.85,85.94 55.18,85.69 55.51,85.43 55.38,85.53 55.24,85.6 55.09,85.67 55.48,85.5 55.88,85.33 56.26,85.17 56.08,85.24 55.9,85.29 55.7,85.31 56.13,85.25 56.58,85.19 57.01,85.13 56.81,85.15 56.63,85.14 56.44,85.12 56.87,85.18 57.32,85.24 57.75,85.3 57.56,85.27 57.38,85.21 57.2,85.14 57.59,85.31 57.99,85.48 58.37,85.64 58.22,85.57 58.08,85.49 57.96,85.39 58.29,85.65 58.62,85.9 58.95,86.16 58.82,86.05 58.71,85.94 58.6,85.81 58.85,86.15 59.11,86.47 59.37,86.81 59.26,86.67 59.18,86.52 59.1,86.37 59.27,86.76 59.43,87.15 59.59,87.54 59.55,87.41 59.51,87.27 59.48,87.12 59.21,85.94 58.25,84.78 57.22,84.18 56.16,83.56 54.61,83.3 53.43,83.69 50.8,84.53 49.36,87.06 49.99,89.75 50.41,91.55 51.66,93.13 53.24,94.07 54.85,95.03 56.76,95.2 58.57,94.79 59.08,94.67 59.59,94.42 60.06,94.19 60.21,94.12 60.35,94.04 60.49,93.95 61.44,93.31 62.21,92.58 62.8,91.57 63.08,91.1 63.26,90.55 63.46,90.05 63.62,89.66 63.78,89.25 63.94,88.86 64.83,86.59 65.74,84.34 66.64,82.07 68.11,78.37 69.58,74.66 71.06,70.96 72.86,66.43 74.66,61.91 76.46,57.39 78.35,52.64 80.23,47.9 82.12,43.15 83.87,38.78 85.6,34.39 87.34,30.02 88.69,26.63 90.03,23.25 91.38,19.86 92.09,18.08 92.8,16.29 93.51,14.5 93.56,14.37 93.61,14.25 93.66,14.13 93.89,13.51 93.96,12.79 93.99,12.17 94.05,10.94 93.7,9.82 93.17,8.74 92.82,8.04 92.3,7.36 91.7,6.85 90.78,6.09 89.85,5.49 88.66,5.21 87.46,4.92 86.07,4.9 84.91,5.33 84.89,5.34 84.87,5.34 84.86,5.35 84.71,5.41 84.58,5.46 84.43,5.52 82.59,6.25 80.74,6.99 78.9,7.72 75.47,9.08 72.04,10.45 68.62,11.81 64.21,13.56 59.82,15.31 55.42,17.06 50.66,18.95 45.89,20.85 41.13,22.75 36.63,24.54 32.13,26.33 27.62,28.12 23.97,29.57 20.31,31.02 16.66,32.48 14.45,33.36 12.25,34.23 10.04,35.11 9.67,35.26 9.31,35.4 8.95,35.55 7.83,36 6.99,36.38 6.11,37.22 4.79,38.46 3.99,40.36 4,42.18 4.01,44.04 4.7,45.71 5.94,47.08 6.78,48.01 8.07,48.74 9.28,49.02 11.73,49.6 14.22,50.06 16.68,50.57 21.49,51.58 26.3,52.58 31.11,53.6 34.99,54.4 38.86,55.22 42.75,56.03 43.44,56.18 44.18,56.26 44.84,56.51 44.45,56.34 44.06,56.18 43.67,56.02 43.84,56.1 43.99,56.19 44.14,56.29 43.8,56.03 43.48,55.77 43.14,55.52 43.28,55.64 43.4,55.75 43.51,55.89 43.26,55.56 43,55.23 42.75,54.9 42.85,55.04 42.94,55.19 43.01,55.36 42.84,54.97 42.68,54.57 42.52,54.19 42.68,54.58 42.74,55.01 42.82,55.43 43,56.26 43.17,57.09 43.35,57.92 43.93,60.71 44.52,63.5 45.1,66.3 45.81,69.7 46.53,73.1 47.24,76.5 47.86,79.46 48.47,82.42 49.09,85.36 49.4,86.8 49.66,88.25 50,89.69 50,89.71 50.01,89.73 50.01,89.75 50.25,90.91 51.27,92.1 52.27,92.69 53.33,93.31 54.88,93.57 56.07,93.18 57.26,92.8 58.41,92.06 59.01,90.92 59.62,89.71 59.76,88.47 59.48,87.12 Z M 59.48,87.12" />
</svg>
