<?xml version="1.0"?>
<svg version="1.1" xmlns="http://www.w3.org/2000/svg" xmlns:xlink="http://www.w3.org/1999/xlink" width="100" height="100">
    <desc iVinci="yes" version="4.4" gridStep="20" showGrid="no" snapToGrid="no" codePlatform="0"/>
    <g id="Layer1">
        <g id="Shape1">
            <desc type="0" basicInfo-basicType="0" basicInfo-roundedRectRadius="12" basicInfo-polygonSides="6" basicInfo-starPoints="5" bounding="rect(-9.7002,-12.4595,19.3999,24.9189)" text="" font-familyName="" font-pixelSize="20" font-bold="0" font-underline="0" font-alignment="1" strokeStyle="0" markerStart="0" markerEnd="0" shadowEnabled="0" shadowOffsetX="0" shadowOffsetY="2" shadowBlur="4" shadowOpacity="160" blurEnabled="0" blurRadius="4" transform="matrix(1,0,0,1,5263.4,2406.56)" pers-center="0,0" pers-size="0,0" pers-start="0,0" pers-end="0,0" locked="0" mesh="" flag=""/>
            <path id="shapePath1" d="M5273.1,2400.1 L5273.1,2398.1 C5273.1,2395.3 5268.1,2394.1 5263.4,2394.1 C5258.7,2394.1 5253.7,2395.4 5253.7,2398.1 L5253.7,2400.1 C5253.7,2401.9 5254.4,2403.7 5255.7,2405 L5260.7,2409.9 C5261,2410.2 5261.1,2410.5 5261.1,2410.9 L5261.1,2417.3 C5261.1,2417.7 5261.3,2418 5261.7,2418.1 L5264.6,2419 C5265.1,2419.1 5265.6,2418.8 5265.6,2418.2 L5265.6,2411 C5265.6,2410.6 5265.8,2410.3 5266,2410 L5271.1,2405 C5272.4,2403.7 5273.1,2401.9 5273.1,2400.1 M5263.4,2400 C5258.6,2400 5256,2398.7 5255.9,2398.2 C5256,2397.7 5258.6,2396.4 5263.4,2396.4 C5268.2,2396.4 5270.7,2397.7 5270.9,2398.2 C5270.7,2398.7 5268.2,2400 5263.4,2400 " style="stroke:none;fill-rule:nonzero;fill:#000000;fill-opacity:1;"/>
        </g>
        <g id="Shape2">
            <desc type="0" basicInfo-basicType="0" basicInfo-roundedRectRadius="12" basicInfo-polygonSides="6" basicInfo-starPoints="5" bounding="rect(-3.1499,-1,6.30029,2)" text="" font-familyName="" font-pixelSize="20" font-bold="0" font-underline="0" font-alignment="1" strokeStyle="0" markerStart="0" markerEnd="0" shadowEnabled="0" shadowOffsetX="0" shadowOffsetY="2" shadowBlur="4" shadowOpacity="160" blurEnabled="0" blurRadius="4" transform="matrix(1,0,0,1,5270.55,2411.3)" pers-center="0,0" pers-size="0,0" pers-start="0,0" pers-end="0,0" locked="0" mesh="" flag=""/>
            <path id="shapePath2" d="M5268.4,2410.3 C5267.8,2410.3 5267.4,2410.7 5267.4,2411.3 C5267.4,2411.9 5267.8,2412.3 5268.4,2412.3 L5272.7,2412.3 C5273.3,2412.3 5273.7,2411.9 5273.7,2411.3 C5273.7,2410.7 5273.3,2410.3 5272.7,2410.3 L5268.4,2410.3 Z" style="stroke:none;fill-rule:nonzero;fill:#000000;fill-opacity:1;"/>
        </g>
        <g id="Shape3">
            <desc type="0" basicInfo-basicType="0" basicInfo-roundedRectRadius="12" basicInfo-polygonSides="6" basicInfo-starPoints="5" bounding="rect(-3.1499,-1,6.30029,2)" text="" font-familyName="" font-pixelSize="20" font-bold="0" font-underline="0" font-alignment="1" strokeStyle="0" markerStart="0" markerEnd="0" shadowEnabled="0" shadowOffsetX="0" shadowOffsetY="2" shadowBlur="4" shadowOpacity="160" blurEnabled="0" blurRadius="4" transform="matrix(1,0,0,1,5270.55,2414.7)" pers-center="0,0" pers-size="0,0" pers-start="0,0" pers-end="0,0" locked="0" mesh="" flag=""/>
            <path id="shapePath3" d="M5272.7,2413.7 L5268.4,2413.7 C5267.8,2413.7 5267.4,2414.1 5267.4,2414.7 C5267.4,2415.3 5267.8,2415.7 5268.4,2415.7 L5272.7,2415.7 C5273.3,2415.7 5273.7,2415.3 5273.7,2414.7 C5273.7,2414.1 5273.3,2413.7 5272.7,2413.7 Z" style="stroke:none;fill-rule:nonzero;fill:#000000;fill-opacity:1;"/>
        </g>
        <g id="Shape4">
            <desc type="0" basicInfo-basicType="0" basicInfo-roundedRectRadius="12" basicInfo-polygonSides="6" basicInfo-starPoints="5" bounding="rect(-3.1499,-1,6.30029,2)" text="" font-familyName="" font-pixelSize="20" font-bold="0" font-underline="0" font-alignment="1" strokeStyle="0" markerStart="0" markerEnd="0" shadowEnabled="0" shadowOffsetX="0" shadowOffsetY="2" shadowBlur="4" shadowOpacity="160" blurEnabled="0" blurRadius="4" transform="matrix(1,0,0,1,5270.55,2418)" pers-center="0,0" pers-size="0,0" pers-start="0,0" pers-end="0,0" locked="0" mesh="" flag=""/>
            <path id="shapePath4" d="M5272.7,2417 L5268.4,2417 C5267.8,2417 5267.4,2417.4 5267.4,2418 C5267.4,2418.6 5267.8,2419 5268.4,2419 L5272.7,2419 C5273.3,2419 5273.7,2418.6 5273.7,2418 C5273.7,2417.5 5273.3,2417 5272.7,2417 Z" style="stroke:none;fill-rule:nonzero;fill:#000000;fill-opacity:1;"/>
        </g>
        <g id="Shape5">
            <desc type="0" basicInfo-basicType="0" basicInfo-roundedRectRadius="12" basicInfo-polygonSides="6" basicInfo-starPoints="5" bounding="rect(-10.4502,-15.2,20.9005,30.4)" text="" font-familyName="" font-pixelSize="20" font-bold="0" font-underline="0" font-alignment="1" strokeStyle="0" markerStart="0" markerEnd="0" shadowEnabled="0" shadowOffsetX="0" shadowOffsetY="2" shadowBlur="4" shadowOpacity="160" blurEnabled="0" blurRadius="4" transform="matrix(1,0,0,1,49.9716,17.6)" pers-center="0,0" pers-size="0,0" pers-start="0,0" pers-end="0,0" locked="0" mesh="" flag=""/>
            <path id="shapePath5" d="M48.6,32.2 C49.2,33 50.4,33 50.9,32.2 L59.7,20.1 C60.4,19.1 59.7,17.8 58.5,17.8 L54.6,17.8 C54.9,12.3 56.9,7.2 60.3,3.2 C60.6,2.9 60.3,2.4 59.9,2.4 C51.8,3 45.4,9.6 44.9,17.8 L41,17.8 C39.8,17.8 39.1,19.1 39.8,20.1 L48.6,32.2 Z" style="stroke:none;fill-rule:nonzero;fill:#ffffff;fill-opacity:1;"/>
        </g>
        <g id="Shape6">
            <desc type="0" basicInfo-basicType="0" basicInfo-roundedRectRadius="12" basicInfo-polygonSides="6" basicInfo-starPoints="5" bounding="rect(-15.2,-10.4502,30.4,20.9005)" text="" font-familyName="" font-pixelSize="20" font-bold="0" font-underline="0" font-alignment="1" strokeStyle="0" markerStart="0" markerEnd="0" shadowEnabled="0" shadowOffsetX="0" shadowOffsetY="2" shadowBlur="4" shadowOpacity="160" blurEnabled="0" blurRadius="4" transform="matrix(1,0,0,1,17.7,50.0284)" pers-center="0,0" pers-size="0,0" pers-start="0,0" pers-end="0,0" locked="0" mesh="" flag=""/>
            <path id="shapePath6" d="M20.1,40.3 C19.1,39.6 17.8,40.3 17.8,41.5 L17.8,45.4 C12.3,45.1 7.2,43 3.3,39.7 C3,39.4 2.5,39.7 2.5,40.1 C3.1,48.2 9.7,54.6 17.9,55.1 L17.9,59 C17.9,60.2 19.2,60.9 20.2,60.2 L32.3,51.4 C33.1,50.8 33.1,49.6 32.3,49.1 L20.1,40.3 Z" style="stroke:none;fill-rule:nonzero;fill:#ffffff;fill-opacity:1;"/>
        </g>
        <g id="Shape7">
            <desc type="0" basicInfo-basicType="0" basicInfo-roundedRectRadius="12" basicInfo-polygonSides="6" basicInfo-starPoints="5" bounding="rect(-10.4502,-15.2,20.9005,30.4)" text="" font-familyName="" font-pixelSize="20" font-bold="0" font-underline="0" font-alignment="1" strokeStyle="0" markerStart="0" markerEnd="0" shadowEnabled="0" shadowOffsetX="0" shadowOffsetY="2" shadowBlur="4" shadowOpacity="160" blurEnabled="0" blurRadius="4" transform="matrix(1,0,0,1,50.0284,82.4)" pers-center="0,0" pers-size="0,0" pers-start="0,0" pers-end="0,0" locked="0" mesh="" flag=""/>
            <path id="shapePath7" d="M51.4,67.8 C50.8,67 49.6,67 49.1,67.8 L40.3,79.9 C39.6,80.9 40.3,82.2 41.5,82.2 L45.4,82.2 C45.2,87.7 43.1,92.8 39.7,96.8 C39.4,97.1 39.7,97.6 40.1,97.6 C48.2,97 54.6,90.4 55.1,82.2 L59,82.2 C60.2,82.2 60.9,80.9 60.2,79.9 L51.4,67.8 Z" style="stroke:none;fill-rule:nonzero;fill:#ffffff;fill-opacity:1;"/>
        </g>
        <g id="Shape8">
            <desc type="0" basicInfo-basicType="0" basicInfo-roundedRectRadius="12" basicInfo-polygonSides="6" basicInfo-starPoints="5" bounding="rect(-15.2,-10.4502,30.4,20.9005)" text="" font-familyName="" font-pixelSize="20" font-bold="0" font-underline="0" font-alignment="1" strokeStyle="0" markerStart="0" markerEnd="0" shadowEnabled="0" shadowOffsetX="0" shadowOffsetY="2" shadowBlur="4" shadowOpacity="160" blurEnabled="0" blurRadius="4" transform="matrix(1,0,0,1,82.3,49.9716)" pers-center="0,0" pers-size="0,0" pers-start="0,0" pers-end="0,0" locked="0" mesh="" flag=""/>
            <path id="shapePath8" d="M82.1,44.9 L82.1,41 C82.1,39.8 80.8,39.1 79.8,39.8 L67.7,48.6 C66.9,49.2 66.9,50.4 67.7,50.9 L79.8,59.7 C80.8,60.4 82.1,59.7 82.1,58.5 L82.1,54.6 C87.6,54.8 92.7,56.9 96.7,60.3 C97,60.6 97.5,60.3 97.5,59.9 C96.9,51.8 90.3,45.4 82.1,44.9 Z" style="stroke:none;fill-rule:nonzero;fill:#ffffff;fill-opacity:1;"/>
        </g>
        <g id="Shape9">
            <desc type="0" basicInfo-basicType="0" basicInfo-roundedRectRadius="12" basicInfo-polygonSides="6" basicInfo-starPoints="5" bounding="rect(-11.3,-11.3,22.6,22.6)" text="" font-familyName="" font-pixelSize="20" font-bold="0" font-underline="0" font-alignment="1" strokeStyle="0" markerStart="0" markerEnd="0" shadowEnabled="0" shadowOffsetX="0" shadowOffsetY="2" shadowBlur="4" shadowOpacity="160" blurEnabled="0" blurRadius="4" transform="matrix(1,0,0,1,50,50)" pers-center="0,0" pers-size="0,0" pers-start="0,0" pers-end="0,0" locked="0" mesh="" flag=""/>
            <path id="shapePath9" d="M61.3,50 C61.3,56.2408 56.2408,61.3 50,61.3 C43.7592,61.3 38.7,56.2408 38.7,50 C38.7,43.7592 43.7592,38.7 50,38.7 C56.2408,38.7 61.3,43.7592 61.3,50 Z" style="stroke:none;fill-rule:evenodd;fill:#ffffff;fill-opacity:1;"/>
        </g>
    </g>
</svg>
