<?xml version="1.0"?>
<svg version="1.1" xmlns="http://www.w3.org/2000/svg" xmlns:xlink="http://www.w3.org/1999/xlink" width="100" height="100">
    <desc iVinci="yes" version="4.4" gridStep="20" showGrid="no" snapToGrid="no" codePlatform="0"/>
    <g id="Layer1">
        <g id="Shape1">
            <desc type="0" basicInfo-basicType="0" basicInfo-roundedRectRadius="12" basicInfo-polygonSides="6" basicInfo-starPoints="5" bounding="rect(-21.45,-16.6354,42.9,33.2708)" text="" font-familyName="" font-pixelSize="20" font-bold="0" font-underline="0" font-alignment="1" strokeStyle="0" markerStart="0" markerEnd="0" shadowEnabled="0" shadowOffsetX="0" shadowOffsetY="2" shadowBlur="4" shadowOpacity="160" blurEnabled="0" blurRadius="4" transform="matrix(1.65336,0,0,1.65336,50,72.4957)" pers-center="0,0" pers-size="0,0" pers-start="0,0" pers-end="0,0" locked="0" mesh="" flag=""/>
            <path id="shapePath1" d="M85.4645,48.4317 C85.3347,46.4957 83.7263,44.9914 81.7858,44.9914 C79.8453,44.9914 78.237,46.4957 78.1071,48.4317 C78.1071,63.9548 65.523,76.5388 50,76.5388 C34.4769,76.5388 21.8929,63.9548 21.8929,48.4317 C21.7631,46.4957 20.1547,44.9914 18.2142,44.9914 C16.2736,44.9914 14.6652,46.4957 14.5355,48.4317 C14.5548,66.5883 28.2721,81.8036 46.3295,83.6979 L46.3295,92.6425 L31.5981,92.6425 C29.662,92.7725 28.1578,94.3807 28.1578,96.3213 C28.1578,98.2618 29.662,99.8702 31.5981,100 L68.4019,100 C70.338,99.8702 71.8422,98.2618 71.8422,96.3213 C71.8422,94.3807 70.338,92.7725 68.4019,92.6425 L53.687,92.6425 L53.687,83.6979 C71.738,81.7957 85.4462,66.5826 85.4645,48.4317 Z" style="stroke:#000000;stroke-opacity:1;stroke-width:0;stroke-linejoin:miter;stroke-miterlimit:2;stroke-linecap:butt;fill-rule:evenodd;fill:#ffffff;fill-opacity:1;"/>
        </g>
        <g id="Shape2">
            <desc type="0" basicInfo-basicType="0" basicInfo-roundedRectRadius="12" basicInfo-polygonSides="6" basicInfo-starPoints="5" bounding="rect(-13.1,-21.02,26.2,42.04)" text="" font-familyName="" font-pixelSize="20" font-bold="0" font-underline="0" font-alignment="1" strokeStyle="0" markerStart="0" markerEnd="0" shadowEnabled="0" shadowOffsetX="0" shadowOffsetY="2" shadowBlur="4" shadowOpacity="160" blurEnabled="0" blurRadius="4" transform="matrix(1.65336,0,0,1.65336,50,35.4033)" pers-center="0,0" pers-size="0,0" pers-start="0,0" pers-end="0,0" locked="0" mesh="" flag=""/>
            <path id="shapePath2" d="M50,70.1569 C61.9581,70.1478 71.6499,60.456 71.659,48.4979 L71.659,22.3087 C71.659,10.3468 61.9619,0.649673 50,0.649673 C38.0381,0.649673 28.341,10.3468 28.341,22.3087 L28.341,48.4317 C28.3278,54.1862 30.6034,59.7096 34.6662,63.7848 C38.729,67.86 44.2455,70.1526 50,70.1569 M35.6984,22.3748 C35.6984,14.4762 42.1014,8.07326 50,8.07326 C57.8986,8.07326 64.3015,14.4762 64.3015,22.3748 L64.3015,48.4979 C64.3015,56.3965 57.8986,62.7994 50,62.7994 C42.1014,62.7994 35.6984,56.3965 35.6984,48.4979 L35.6984,22.3748 " style="stroke:#000000;stroke-opacity:1;stroke-width:0;stroke-linejoin:miter;stroke-miterlimit:2;stroke-linecap:butt;fill-rule:evenodd;fill:#ffffff;fill-opacity:1;"/>
        </g>
    </g>
</svg>
