<?xml version="1.0"?>
<svg version="1.1" xmlns="http://www.w3.org/2000/svg" xmlns:xlink="http://www.w3.org/1999/xlink" width="100" height="100">
    <desc iVinci="yes" version="4.4" gridStep="20" showGrid="no" snapToGrid="no" codePlatform="0"/>
    <g id="Layer1">
        <g id="Shape1">
            <desc type="0" basicInfo-basicType="0" basicInfo-roundedRectRadius="12" basicInfo-polygonSides="6" basicInfo-starPoints="5" bounding="rect(-45,-29.668,90,59.336)" text="" font-familyName="" font-pixelSize="20" font-bold="0" font-underline="0" font-alignment="1" strokeStyle="0" markerStart="0" markerEnd="0" shadowEnabled="0" shadowOffsetX="0" shadowOffsetY="2" shadowBlur="4" shadowOpacity="160" blurEnabled="0" blurRadius="0" transform="matrix(1.08156,0,0,1.08156,50.3369,52.4197)" pers-center="0,0" pers-size="0,0" pers-start="0,0" pers-end="0,0" locked="0" mesh="" flag=""/>
            <path id="shapePath1" d="M96.2487,29.7608 C94.5244,28.5919 92.3322,28.3557 90.3984,29.1303 L71.3185,36.7553 L71.3185,30.9259 C71.3123,25.0779 66.5732,20.3385 60.7252,20.332 L12.2599,20.332 C6.4119,20.3385 1.67285,25.0779 1.66667,30.9259 L1.66667,73.9137 C1.6729,79.7617 6.41194,84.5009 12.2599,84.5074 L60.7252,84.5074 C66.5732,84.5009 71.3123,79.7617 71.3185,73.9137 L71.3185,67.3996 L90.2564,75.5095 C92.1961,76.3406 94.4236,76.1416 96.1854,74.9798 C97.947,73.8178 99.0072,71.8487 99.007,69.7384 L99.007,34.9594 C99.0085,32.8759 97.9748,30.9278 96.2487,29.7608 M65.9107,73.9136 C65.9074,76.7762 63.5878,79.0961 60.7252,79.0996 L12.2599,79.0996 C9.39734,79.0961 7.07771,76.7762 7.07447,73.9136 L7.07447,30.9259 C7.07771,28.0633 9.39734,25.7434 12.2599,25.7398 L60.7252,25.7398 C63.5878,25.7434 65.9074,28.0633 65.9107,30.9259 L65.9107,73.9136 M93.5993,69.7384 C93.5989,70.031 93.4518,70.3038 93.2076,70.4649 C92.9635,70.626 92.6547,70.6538 92.3856,70.539 L71.3185,61.5177 L71.3185,42.5786 L92.4057,34.1515 C92.6739,34.0443 92.9777,34.0772 93.2167,34.239 C93.4558,34.4009 93.5991,34.6708 93.5993,34.9594 L93.5993,69.7384 " style="stroke:#ffffff;stroke-opacity:1;stroke-width:5;stroke-linejoin:miter;stroke-miterlimit:2;stroke-linecap:butt;fill-rule:evenodd;fill:#ffffff;fill-opacity:1;"/>
        </g>
    </g>
</svg>
