<?xml version="1.0" encoding="UTF-8"?>
<!DOCTYPE svg PUBLIC "-//W3C//DTD SVG 1.1//EN" "http://www.w3.org/Graphics/SVG/1.1/DTD/svg11.dtd">
<svg version="1.1" xmlns="http://www.w3.org/2000/svg" xmlns:xlink="http://www.w3.org/1999/xlink" width="81" height="85"  xml:space="preserve" id="speaker_IconCanvas">
	<!-- Generated by PaintCode - http://www.paintcodeapp.com -->
	<g id="speaker_IconCanvas-group">
		<path id="speaker_IconCanvas-bezier" stroke="rgb(255, 255, 255)" stroke-width="10" stroke-linecap="round" stroke-miterlimit="10" fill="rgb(128, 128, 128)" d="M 41,-0 C 41,48.46 41,50 41,50" />
		<path id="speaker_IconCanvas-bezier2" stroke="rgb(255, 255, 255)" stroke-width="10" stroke-linecap="round" stroke-miterlimit="10" fill="rgb(128, 128, 128)" d="M -21.13,73.36 C -21.13,104.12 -21.13,105.1 -21.13,105.1" transform="translate(130.81, -7.93) rotate(45)"  />
		<path id="speaker_IconCanvas-bezier3" stroke="rgb(255, 255, 255)" stroke-width="10" stroke-linecap="round" stroke-miterlimit="10" fill="rgb(128, 128, 128)" d="M -94.75,45.25 C -94.75,76.03 -94.75,77 -94.75,77" transform="translate(54, -70) rotate(-45)"  />
	</g>
	<path id="speaker_IconCanvas-bezier4" stroke="none" fill="rgb(255, 255, 255)" d="M 81.5,58 L 81.5,79.5 C 81.5,81.01 80.83,82.36 79.78,83.28 78.86,84.33 77.51,85 76,85 L 6,85 C 4.49,85 3.14,84.33 2.22,83.28 1.17,82.36 0.5,81.01 0.5,79.5 L 0.5,58 C 0.5,55.24 2.74,53 5.5,53 L 12.5,53 C 15.26,53 17.5,55.24 17.5,58 17.5,58 17.5,62.89 17.5,68 L 64.5,68 C 64.5,62.89 64.5,58 64.5,58 64.5,55.24 66.74,53 69.5,53 L 76.5,53 C 79.26,53 81.5,55.24 81.5,58 Z M 81.5,58" />
</svg>
