<?xml version="1.0" encoding="UTF-8"?>
<svg width="756px" height="931px" viewBox="0 0 756 931" version="1.1" xmlns="http://www.w3.org/2000/svg" xmlns:xlink="http://www.w3.org/1999/xlink">
    <!-- Generator: Sketch 50.2 (55047) - http://www.bohemiancoding.com/sketch -->
    <title>run</title>
    <desc>Created with Sketch.</desc>
    <defs></defs>
    <g id="Page-1" stroke="none" stroke-width="1" fill="none" fill-rule="evenodd">
        <g id="Mobile" transform="translate(756.500000, -125.500000) scale(-1, 1) translate(-756.500000, 125.500000) translate(-10019.000000, -5861.000000)" fill="#FFFFFF" fill-rule="nonzero">
            <g id="run" transform="translate(11154.000000, 6326.500000) scale(-1, 1) translate(-11154.000000, -6326.500000) translate(10776.000000, 5861.000000)">
                <path d="M95.3,930.1 C79.8,930.1 65.1,926.5 52.2,919.5 C35.3,910.3 21.8,895.4 12.9,876.4 C4.7,858.8 0.6,837.9 0.6,814.3 L0.6,116.3 C0.6,92.7 4.7,71.8 12.9,54.2 C21.7,35.2 35.3,20.3 52.2,11.1 C69.1,1.9 88.9,-1.4 109.7,1.5 C128.9,4.2 148.7,12 168.6,24.8 L691.8,362 C711.7,374.8 727.3,390.1 738.2,407.5 C749.4,425.4 755.3,445.3 755.3,465.2 C755.3,485.1 749.4,505 738.2,522.9 C727.3,540.3 711.7,555.6 691.8,568.4 L168.5,905.7 C148.7,918.5 128.9,926.3 109.6,929 C104.8,929.7 100,930.1 95.3,930.1 M95.2,65.6 C90.7,65.6 86.7,66.5 83.4,68.3 C72.4,74.3 65.8,92.2 65.8,116.3 L65.8,814.2 C65.8,838.2 72.4,856.2 83.4,862.2 C94.4,868.2 113,864 133.2,851 L656.5,513.7 C678.2,499.7 690.1,482.5 690.1,465.3 C690.1,448 678.2,430.8 656.5,416.9 L133.2,79.5 C119.1,70.4 105.7,65.6 95.2,65.6" id="shapePath1"></path>
            </g>
        </g>
    </g>
</svg>