<?xml version="1.0" encoding="UTF-8"?>
<svg width="100%" height="100%" viewBox="0 0 926 912" version="1.1" xmlns="http://www.w3.org/2000/svg" xmlns:xlink="http://www.w3.org/1999/xlink">
    <g id="Page-1" stroke="none" stroke-width="1" fill="none" fill-rule="evenodd">
        <g id="Mobile" transform="translate(5833.500000, -2440.500000) scale(-1, 1) translate(-5833.500000, 2440.500000) translate(-4942.000000, -8176.000000)" fill="gray" fill-rule="nonzero">
            <g id="scale" transform="translate(16146.000000, 8632.000000) scale(-1, 1) translate(-16146.000000, -8632.000000) translate(15683.000000, 8176.000000)">
                <path d="M810.5,0.7 L314.8,0.7 C251.4,0.7 199.8,52.3 199.8,115.7 L199.8,460.7 L71.4,460.7 C32.3,460.7 0.5,492.5 0.5,531.6 L0.5,840.3 C0.5,879.4 32.3,911.2 71.4,911.2 L380.2,911.2 C419.3,911.2 451.1,879.4 451.1,840.3 L451.1,726.5 L810.6,726.5 C874,726.5 925.6,674.9 925.6,611.5 L925.6,115.7 C925.5,52.3 873.9,0.7 810.5,0.7 M412.4,840.4 C412.4,858.2 397.9,872.7 380.1,872.7 L71.4,872.7 C53.6,872.7 39.1,858.2 39.1,840.4 L39.1,531.6 C39.1,513.8 53.6,499.3 71.4,499.3 L199.8,499.3 L199.8,611.4 C199.8,674.8 251.4,726.4 314.8,726.4 L412.4,726.4 L412.4,840.4 M412.4,662.2 L314.8,662.2 C286.9,662.2 264.1,639.5 264.1,611.5 L264.1,499.4 L380.1,499.4 C397.9,499.4 412.4,513.9 412.4,531.7 L412.4,662.2 M861.2,611.5 C861.2,639.4 838.5,662.2 810.5,662.2 L451,662.2 L451,531.6 C451,492.5 419.2,460.7 380.1,460.7 L264.1,460.7 L264.1,115.7 C264.1,87.8 286.8,65 314.8,65 L810.5,65 C838.4,65 861.2,87.7 861.2,115.7 L861.2,611.5" id="shapePath1"></path>
            </g>
        </g>
    </g>
</svg>