<?xml version="1.0" encoding="UTF-8"?>
<!DOCTYPE svg PUBLIC "-//W3C//DTD SVG 1.1//EN" "http://www.w3.org/Graphics/SVG/1.1/DTD/svg11.dtd">
<svg version="1.1" xmlns="http://www.w3.org/2000/svg" xmlns:xlink="http://www.w3.org/1999/xlink" width="944" height="944"  xml:space="preserve" id="canvas11">
    <!-- Generated by PaintCode - http://www.paintcodeapp.com -->
    <g id="canvas11-group">
        <path id="canvas11-shapePath" stroke="none" fill="rgb(255, 255, 255)" d="M 280.14,270.83 C 264.67,254.88 239.35,254.5 223.39,269.83 L 40.42,446.73 C 24.58,462.07 24.09,487.25 39.18,503.2 L 222.14,695.93 C 230,704.29 240.6,708.4 251.2,708.4 261.05,708.4 271.03,704.78 278.76,697.43 294.85,682.22 295.48,656.79 280.26,640.71 L 124.74,476.78 279.14,327.55 C 295.1,312.1 295.48,286.66 280.14,270.83 Z M 280.14,270.83" />
        <path id="canvas11-shapePath2" stroke="none" fill="rgb(255, 255, 255)" d="M 727.26,271.08 C 712.04,255 686.6,254.25 670.51,269.59 654.42,284.79 653.8,310.23 669.01,326.31 L 824.66,490.24 670.26,639.46 C 654.3,654.92 653.92,680.23 669.26,696.18 677.12,704.29 687.6,708.4 698.07,708.4 708.18,708.4 718.15,704.66 726.01,697.18 L 908.98,520.28 C 924.82,504.95 925.31,479.77 910.22,463.81 L 727.26,271.08 Z M 727.26,271.08" />
        <path id="canvas11-bezier" stroke="rgb(255, 255, 255)" stroke-width="61" stroke-linecap="round" stroke-linejoin="bevel" stroke-miterlimit="10" fill="none" d="M 291.74,482.88 C 315.73,482.88 642.2,482.88 642.2,482.88" />
        <path id="canvas11-bezier2" stroke="rgb(255, 255, 255)" stroke-width="61" stroke-linecap="round" stroke-linejoin="bevel" stroke-miterlimit="10" fill="none" d="M -175.15,0 C -151.17,0 175.15,0 175.15,0" transform="translate(466.97, 482.88) rotate(-90)"  />
    </g>
</svg>
