<?xml version="1.0" encoding="UTF-8"?>
<!DOCTYPE svg PUBLIC "-//W3C//DTD SVG 1.1//EN" "http://www.w3.org/Graphics/SVG/1.1/DTD/svg11.dtd">
<svg version="1.1" xmlns="http://www.w3.org/2000/svg" xmlns:xlink="http://www.w3.org/1999/xlink" width="100" height="100"  xml:space="preserve" id="selection">
    <!-- Generated by PaintCode - http://www.paintcodeapp.com -->
    <path id="selection-shapePath1" fill-rule="evenodd" stroke="rgb(255, 255, 255)" stroke-width="4" stroke-linecap="round" stroke-linejoin="round" stroke-miterlimit="2" fill="rgb(255, 255, 255)" d="M 34.25,16.85 L 34.25,8.5 46.62,8.5 46.62,16.85 34.25,16.85 Z M 54.87,16.85 L 54.87,8.5 67.25,8.5 67.25,16.85 54.87,16.85 Z M 34.25,92 L 34.25,83.65 46.62,83.65 46.62,92 34.25,92 Z M 54.87,92 L 54.87,83.65 67.25,83.65 67.25,92 54.87,92 Z M 9.5,66.95 L 9.5,54.42 17.75,54.42 17.75,66.95 9.5,66.95 Z M 9.5,46.07 L 9.5,33.55 17.75,33.55 17.75,46.07 9.5,46.07 Z M 83.75,66.95 L 83.75,54.42 92,54.42 92,66.95 83.75,66.95 Z M 83.75,46.07 L 83.75,33.55 92,33.55 92,46.07 83.75,46.07 Z M 9.5,25.2 L 9.5,8.5 26,8.5 26,16.85 17.75,16.85 17.75,25.2 9.5,25.2 Z M 92,25.2 L 83.75,25.2 83.75,16.85 75.5,16.85 75.5,8.5 92,8.5 92,25.2 Z M 9.5,75.3 L 17.75,75.3 17.75,83.65 26,83.65 26,92 9.5,92 9.5,75.3 Z M 92,75.3 L 92,92 75.5,92 75.5,83.65 83.75,83.65 83.75,75.3 92,75.3 Z M 92,75.3" />
</svg>
