<?xml version="1.0"?>
<svg version="1.1" xmlns="http://www.w3.org/2000/svg" xmlns:xlink="http://www.w3.org/1999/xlink" width="100" height="100">
    <desc iVinci="yes" version="4.4" gridStep="20" showGrid="no" snapToGrid="no" codePlatform="0"/>
    <g id="Layer1">
        <g id="Shape1">
            <desc type="0" basicInfo-basicType="0" basicInfo-roundedRectRadius="12" basicInfo-polygonSides="6" basicInfo-starPoints="5" bounding="rect(-50.011,-49.9941,100.022,99.9883)" text="" font-familyName="" font-pixelSize="20" font-bold="0" font-underline="0" font-alignment="1" strokeStyle="0" markerStart="0" markerEnd="0" shadowEnabled="0" shadowOffsetX="0" shadowOffsetY="2" shadowBlur="4" shadowOpacity="160" blurEnabled="0" blurRadius="4" transform="matrix(0.895003,0,0,0.895003,50,50)" pers-center="0,0" pers-size="0,0" pers-start="0,0" pers-end="0,0" locked="0" mesh="" flag=""/>
            <path id="shapePath1" d="M93.5715,31.1423 C92.1753,27.9113 88.3268,25.459 85.0063,25.6917 C81.6859,25.9244 77.8463,24.6267 76.1458,23.0067 C74.4453,21.3868 73.067,17.5561 73.1923,14.2178 C73.3176,10.8794 70.7489,7.13831 67.4643,5.83161 C64.1796,4.52491 59.7404,5.51836 57.5566,8.01542 C55.3728,10.5125 51.7122,12.3472 49.3852,12.4188 C47.0582,12.4904 43.3529,10.7452 41.0975,8.31076 C38.8421,5.87636 34.3581,5.00821 31.1272,6.40441 C27.8962,7.80061 25.426,11.6491 25.6587,14.9696 C25.8914,18.29 24.5936,22.1296 22.9737,23.8301 C21.3537,25.5306 17.5231,26.891 14.2027,26.7836 C10.8822,26.6762 7.12319,29.2359 5.81649,32.5206 C4.50978,35.8053 5.50324,40.2445 8.00029,42.4283 C10.4974,44.6121 12.3321,48.2726 12.4037,50.5907 C12.4753,52.9088 10.739,56.623 8.29565,58.8784 C5.85229,61.1338 4.97519,65.6088 6.38929,68.8577 C7.80339,72.1066 11.634,74.5589 14.9545,74.3262 C18.2749,74.0935 22.1145,75.3912 23.815,77.0112 C25.5155,78.6311 26.8938,82.4438 26.7685,85.7822 C26.6432,89.1206 29.2119,92.8617 32.5055,94.1684 C35.7991,95.4751 40.2293,94.4816 42.4132,91.9846 C44.597,89.4875 48.2486,87.6528 50.5756,87.617 C52.9026,87.5812 56.6079,89.3085 58.8812,91.7429 C61.1545,94.1773 65.6295,95.0097 68.8605,93.6135 C72.0915,92.2173 74.5617,88.3867 74.329,85.0662 C74.0963,81.7458 75.394,77.9062 77.014,76.2057 C78.6339,74.5052 82.4556,73.1448 85.7939,73.279 C89.1323,73.4133 92.8734,70.8357 94.1801,67.5421 C95.4868,64.2484 94.5113,59.8182 91.9963,57.6165 C89.4814,55.4148 87.6466,51.799 87.584,49.4451 C87.5213,47.0912 89.2576,43.4128 91.7099,41.1574 C94.2038,38.4543 94.9275,34.561 93.5715,31.1423 M56.8764,65.9937 C48.0444,69.8122 37.7893,65.7454 33.9748,56.9116 C30.1604,48.0778 34.232,37.8246 43.0675,34.0142 C51.903,30.2038 62.1544,34.2801 65.9607,43.1174 C69.7653,51.9358 65.7133,62.1698 56.9033,65.9937 L56.8764,65.9937 " style="stroke:none;fill-rule:nonzero;fill:#ffffff;fill-opacity:1;"/>
        </g>
    </g>
</svg>
