<?xml version="1.0" encoding="UTF-8"?>
<!DOCTYPE svg PUBLIC "-//W3C//DTD SVG 1.1//EN" "http://www.w3.org/Graphics/SVG/1.1/DTD/svg11.dtd">
<svg version="1.1" xmlns="http://www.w3.org/2000/svg" xmlns:xlink="http://www.w3.org/1999/xlink" width="100" height="100"  xml:space="preserve" id="sort">
    <!-- Generated by PaintCode - http://www.paintcodeapp.com -->
    <path id="sort-bezier" stroke="none" fill="rgb(255, 255, 255)" d="M 85.83,13.16 L 40.59,13.16 C 36.65,13.16 33.42,16.5 33.42,20.59 L 33.42,21.06 C 33.42,25.15 36.65,28.5 40.59,28.5 L 85.83,28.5 C 89.77,28.5 93,25.15 93,21.06 L 93,20.59 C 93,16.5 89.77,13.16 85.83,13.16 Z M 85.83,13.16" />
    <path id="sort-bezier2" stroke="none" fill="rgb(255, 255, 255)" d="M 85.83,40.74 L 40.59,40.74 C 36.65,40.74 33.42,44.09 33.42,48.18 L 33.42,48.64 C 33.42,52.73 36.65,56.08 40.59,56.08 L 85.83,56.08 C 89.77,56.08 93,52.73 93,48.64 L 93,48.18 C 93,44.09 89.77,40.74 85.83,40.74 Z M 85.83,40.74" />
    <path id="sort-bezier3" stroke="none" fill="rgb(255, 255, 255)" d="M 85.83,68.32 L 40.59,68.32 C 36.65,68.32 33.42,71.67 33.42,75.76 L 33.42,76.22 C 33.42,80.31 36.65,83.66 40.59,83.66 L 85.83,83.66 C 89.77,83.66 93,80.31 93,76.22 L 93,75.76 C 93,71.67 89.77,68.32 85.83,68.32 Z M 85.83,68.32" />
    <path id="sort-bezier4" stroke="none" fill="rgb(255, 255, 255)" d="M 23.3,13 L 12.58,13.03 12.58,68.16 3,68.16 23.3,83.66 23.3,13 Z M 23.3,13" />
</svg>
