<?xml version="1.0" encoding="UTF-8"?>
<svg width="944px" height="842px" viewBox="0 0 944 842" version="1.1" xmlns="http://www.w3.org/2000/svg" xmlns:xlink="http://www.w3.org/1999/xlink">
    <!-- Generator: Sketch 50.2 (55047) - http://www.bohemiancoding.com/sketch -->
    <title>variable</title>
    <desc>Created with Sketch.</desc>
    <defs></defs>
    <g id="Page-1" stroke="none" stroke-width="1" fill="none" fill-rule="evenodd">
        <g id="Mobile" transform="translate(-6807.500000, 3939.500000) scale(-1, 1) translate(6807.500000, -3939.500000) translate(-17583.000000, -1796.000000)" fill="#FFFFFF" fill-rule="nonzero">
            <g id="variable" transform="translate(3496.000000, 2217.000000) scale(-1, 1) translate(-3496.000000, -2217.000000) translate(3024.000000, 1796.000000)">
                <g id="Shape1">
                    <path d="M911.8,340.7 L685.4,37.6 C684.5,36.4 683.5,35.2 682.4,34.1 C660.8,12.5 631.8,0.6 600.8,0.6 C597.9,0.6 595,0.7 594.5,0.8 L141.7,0.8 C63.6,0.8 0.1,64.3 0.1,142.4 L0.1,699.9 C0.1,778 63.6,841.5 141.7,841.5 L597.4,841.5 C599.3,841.5 601.1,841.3 603,841 C633.1,840.4 661.3,828.6 682.5,807.4 C683.6,806.3 684.6,805.1 685.5,803.9 L911.9,500.8 C932.6,479.2 944,450.9 944,420.8 C943.9,390.6 932.5,362.3 911.8,340.7 M864.5,457 C863.4,458.1 862.4,459.3 861.5,460.5 L635.4,763.3 C626,771.9 612.6,777 598.6,776.6 C596.2,776.5 593.8,776.7 591.5,777.1 L141.7,777.1 C99.1,777.1 64.4,742.4 64.4,699.8 L64.4,142.4 C64.4,99.8 99.1,65.1 141.7,65.1 L596.9,65 C598.2,64.9 599.5,64.9 600.8,64.9 C613.9,64.9 626.1,69.6 635.4,78.2 L861.5,381 C862.4,382.2 863.5,383.4 864.5,384.5 C874.2,394.2 879.6,407.1 879.6,420.8 C879.6,434.4 874.2,447.3 864.5,457" id="shapePath1"></path>
                </g>
                <g id="Shape2" transform="translate(80.000000, 287.000000)">
                    <path d="M235.9,3.2 C234.5,1.2 232.2,0 229.7,0 L198.5,0 C195.4,0 192.5,1.9 191.4,4.9 L142.2,136.7 C134,158.5 126.2,180.2 118.9,201.5 C111.6,180.1 103.7,158.4 95.5,136.7 L46.3,4.9 C45.2,1.9 42.4,0 39.2,0 L8,0 C5.5,0 3.2,1.2 1.8,3.2 C0.4,5.2 0.1,7.8 1,10.2 L98.2,266.6 C99.3,269.5 102.1,271.5 105.3,271.5 L132.5,271.5 C135.6,271.5 138.5,269.6 139.6,266.6 L236.8,10.2 C237.7,7.8 237.3,5.2 235.9,3.2 Z" id="shapePath2"></path>
                </g>
                <g id="Shape3" transform="translate(283.000000, 286.000000)">
                    <path d="M146.5,5.6 C145.3,2.8 142.6,0.9 139.5,0.9 L112.5,0.9 C109.4,0.9 106.7,2.8 105.5,5.6 L1.1,262 C0.2,264.3 0.4,267 1.8,269.1 C3.2,271.2 5.5,272.4 8.1,272.4 L41.7,272.4 C44.8,272.4 47.6,270.5 48.7,267.6 L77.4,195.1 L174.4,195.1 L203.1,267.6 C204.2,270.5 207,272.4 210.1,272.4 L244,272.4 C246.5,272.4 248.8,271.2 250.3,269.1 C251.8,267 252,264.4 251,262 L146.5,5.6 M159.4,159.6 L92.3,159.6 L98.2,144.8 C107.2,122.2 116.6,97.7 126.1,71.6 C135.3,97.5 144.5,122.1 153.6,144.9 L159.4,159.6" id="shapePath3"></path>
                </g>
                <g id="Shape4" transform="translate(558.000000, 286.000000)">
                    <path d="M123.6,159.6 C130.3,157.8 136.6,155.6 142.5,153 C151.7,148.8 159.7,143.3 166.2,136.7 C172.9,130 178.1,122 181.9,112.9 C185.6,103.8 187.5,93.5 187.5,82.3 C187.5,63.1 182.2,46.8 171.7,33.7 C161.2,20.8 146.2,11.6 126.8,6.3 C119.8,4.4 112.2,3 104.1,2.2 C96,1.3 86.1,0.9 74.7,0.9 L8.3,0.9 C4.1,0.9 0.7,4.3 0.7,8.4 L0.7,264.8 C0.7,269 4.1,272.3 8.3,272.3 L39.6,272.3 C43.8,272.3 47.2,268.9 47.2,264.8 L47.2,166.2 L73.6,166.2 L150.3,269.3 C151.7,271.2 154,272.3 156.4,272.3 L187.7,272.3 C187.8,272.3 188,272.3 188.1,272.3 C192.3,272.3 195.7,268.9 195.7,264.8 C195.7,262.4 194.6,260.3 192.9,258.9 L123.6,159.6 M139.4,81.7 C139.4,91.6 137,99.6 132.3,105.5 C127.4,111.6 120.4,116 110.9,118.9 C106.1,120.4 100.5,121.4 94.2,122 C87.6,122.6 79.7,122.9 70.4,122.9 L47,122.9 L47,44.1 L74.9,44.1 C84.4,44.1 92.3,44.4 98.5,45 C104.5,45.6 109.5,46.5 113.5,47.8 C121.8,50.3 128.1,54.3 132.7,59.9 C137.1,65.3 139.3,72.5 139.4,81.7" id="shapePath4"></path>
                </g>
            </g>
        </g>
    </g>
</svg>